<?xml version="1.0" encoding="UTF-8" standalone="no"?>
<!DOCTYPE svg PUBLIC "-//W3C//DTD SVG 1.1//EN" "http://www.w3.org/Graphics/SVG/1.1/DTD/svg11.dtd">
<svg width="100%" height="100%" viewBox="0 0 1000 684" version="1.1" xmlns="http://www.w3.org/2000/svg" xmlns:xlink="http://www.w3.org/1999/xlink" xml:space="preserve" xmlns:serif="http://www.serif.com/" style="fill-rule:evenodd;clip-rule:evenodd;stroke-linecap:round;stroke-linejoin:round;">
    <g>
        <path id="AL" d="M654.7,528.1L655.2,528.5L657.2,531.4L658.6,531.9L660.5,533.2L661.9,536.4L662,538.6L661.5,541.2L661.8,543.3L661,544.1L661.7,546.1L661.9,548L663.1,550.2L664.3,551.3L665.6,553.7L667.2,553.5L668.5,554.6L668.5,555.7L669.6,557.5L668.8,560.1L667.1,560.9L665.9,564L665.6,566L665,566.5L663.1,566.8L661.4,568.1L662.4,570.3L661.5,571L661.2,572.5L660.5,573.2L657.8,572.3L657.1,569.8L655.4,567.1L650.5,564.5L649.3,563.4L649.7,561.9L649.6,560.5L648.2,558.1L648.5,555.5L649.3,553.3L649,550.6L649.1,548.5L648.4,545.6L648.9,543.5L649.8,542.2L649.6,540L648.1,538.9L646.5,538.7L646.5,535.6L646.2,535L647.9,535L646.2,532.2L649.4,526.9L650.5,527.2L651.3,529.3L654.7,528.1Z" style="fill:none;fill-rule:nonzero;stroke:rgb(245,245,245);stroke-width:2px;"/>
        <path id="AD" d="M423.4,528.8L420.6,529.9L419.9,529.5L419.9,527.4L420.8,526.7L423.4,527.3L423.4,528.8Z" style="fill:none;fill-rule:nonzero;stroke:rgb(245,245,245);stroke-width:2px;"/>
        <path id="AM" d="M974.6,572.4L971.4,569.6L969.1,567.9L967.5,567.2L964,567.6L961.1,566.7L959.3,565.8L959.8,565.2L957.9,562.2L957.1,560.3L958.1,558.9L958.3,556.6L956.6,553.3L954.9,552.1L953.6,550.5L958,550.2L963.3,548.9L966.5,549.2L967.6,549L971.1,548.9L970.6,548.2L972.9,547.7L974.2,549.2L975.8,550.2L974.9,551.1L977.2,552.1L978.4,552.1L981.7,554.6L981.7,555.3L979.8,556.8L979.6,557.9L982.8,561.3L985.2,562.7L988.4,564.2L988.6,565.1L987.7,567.6L984.7,567.6L985.3,568.5L987.2,569.7L993.3,574.1L994.8,573.8L997,574.7L997.2,576L996.2,577.4L998.1,578.8L998.9,580.3L997.1,580.8L998.5,582.3L999,584.9L996.8,584.8L994.3,585.3L991.3,580.6L991.4,579.6L988.3,577.5L988.4,575.8L987.6,574.6L985.9,574.8L984,575.7L981.1,574.1L979.9,574.3L979.6,573.2L977.8,571.5L974.6,572.4Z" style="fill:none;fill-rule:nonzero;stroke:rgb(245,245,245);stroke-width:2px;"/>
        <path id="AT" d="M607.8,434.9L606.9,437.3L607,438.1L608.6,441L610.9,443.9L610.3,444.6L609.7,446.5L610.4,448.5L606.5,448.8L604,447.9L602.7,449.3L605.3,450L605.8,451.1L605.3,452.5L603.1,453.7L603.5,455.2L603,455.9L604.1,457.5L603.8,459.3L601.3,459.8L599.5,461.5L598.2,462.4L598.1,464.3L595.7,463.8L594.1,464L591.8,465.1L589,464.9L586.4,465.1L584.5,465.8L583.5,467.1L580.5,468.3L575.5,467.6L570.5,466.7L567.9,466.2L563.9,465.9L555.3,464.4L554.2,463.9L551.1,460.4L551.1,458.1L546.4,459.6L543.3,459.4L539.9,459.7L538.5,460.3L537.3,462.5L536.2,462.9L534.1,462.5L533.2,461.7L530.2,461.4L529.7,459.9L528.9,459.6L526.9,461.5L524.6,461.1L523.1,460.3L522.7,459.3L519.4,458.5L519.7,457.7L518.6,455.2L519.6,452.2L518.7,451.5L520.4,451L521.1,450.5L524.6,452.1L525.5,453.5L526.7,453.8L526.6,455.1L528.2,454.6L529.2,453L529.4,451.1L532.2,451L534.9,451.4L536.3,453.3L540.1,452.8L541.2,451.9L545.1,450.4L550.8,449.9L550.9,448.5L552.9,448.8L554.4,449.6L556.9,449.1L558,449.6L558.2,450.7L559.4,451.6L561.1,452L561.4,450.5L561.1,448.6L559.4,448.3L560,447L559.9,445.7L557.4,442.9L558,441.6L561.1,439.8L564,439L565,438L565.7,435.1L568,436L569.3,435.1L569.5,432.3L571.7,433.5L572.5,434.8L576.4,435.2L577.8,434.5L580.3,434.9L580.4,433.8L581.7,432.2L582.9,432.2L583.2,429L584.4,428.8L586,429.6L587.4,429.2L592.2,430.9L593.7,430.8L596.7,432.5L600.5,432.7L601.7,431.8L606.8,433.3L607.8,434.9Z" style="fill:none;fill-rule:nonzero;stroke:rgb(245,245,245);stroke-width:2px;"/>
        <path id="BE" d="M470,401.8L471.6,401.3L472.4,402.1L473.6,402.2L476.6,404.5L476.2,406L477.9,406.7L478.3,408.7L476,410L475.4,411.7L473.7,411L472.4,412.3L471,414.8L470.8,416.5L472.8,418.9L471.7,420.6L468.3,421L465.5,418.4L462.2,416.9L460.5,416.8L460.1,414.8L459.5,414.2L460.3,411.5L458.4,412.1L457.9,413.5L456.6,414.1L454.4,414.4L452.1,414.1L451.6,413.5L452.3,412.1L451.6,411.4L452,409.8L450.4,408.7L446.8,408.3L445.9,408.6L445.3,406.6L441.1,405.5L440.6,403.5L439,401.7L435.8,402.7L432.9,400.3L432.9,399.1L432,396.9L437.1,394.4L441.8,392.7L442.1,394L443.3,394.7L444.5,394.1L448.4,395.2L451.6,393.7L452.2,392.5L454.3,392.8L454.1,391.9L455.5,391.2L457,392L458.5,391L459.6,392.3L462.1,391.5L462.6,393.1L465.2,394.5L467.1,394.1L468.8,395.4L471.4,396.5L470.4,399.4L469.3,400.7L470,401.8Z" style="fill:none;fill-rule:nonzero;stroke:rgb(245,245,245);stroke-width:2px;"/>
        <path id="BG" d="M759.6,509.6L759.8,513.3L758.9,515.1L756.9,514.5L754.7,515L753.7,517L752.5,518.2L752.5,520.8L752.9,525L751.3,525.7L748.4,529.4L751.4,531.2L753.1,533.4L755.5,535.9L756,537.1L754.3,536.9L753.4,537.3L751.6,537.3L750.1,537.9L746.7,535.4L743.2,535.7L741.7,536.8L738.3,537.2L737.3,539.4L735.4,539.7L735.1,541.1L733.5,540.6L731.9,541.7L732.6,542.7L733.5,545.4L733.3,546.2L730.8,547.4L729,547.1L725.8,547.5L722.4,548.4L720.7,547.3L717,546.1L716.1,546.7L713.7,545.3L712.5,543.6L710.9,544.1L706.7,544L706.5,544.9L704.6,545.1L701.6,546.2L699,546L696.6,546.2L695.6,547.2L692.6,547L692.6,542.8L693.1,541.1L692.2,540.1L690.5,536.8L687.1,535L683.8,531.8L684.8,531.5L685.9,529.8L684.5,526.9L684.5,523.6L685.6,523L687.4,522.9L688.5,521.3L690.1,519.6L690.4,518.2L688.8,517.2L687.5,515.6L684.6,514.1L682.2,510.2L681.6,507.8L682,505.5L684.1,504.5L684.3,502.6L685.2,501.9L689.5,504.4L687.7,506.4L688.6,508.2L692.3,507.6L696.2,507.9L701.5,508.9L705,509.3L707.5,508.8L716.9,510.5L721.1,510.7L723.4,510.1L725,509.2L726.2,507.6L729.5,505.5L732.7,504.3L737.1,503.4L740,503L744.5,505.3L747.7,505.7L748.6,506.3L750.3,505.8L752.8,508.4L755,509.1L757.6,509.6L759.6,509.6Z" style="fill:none;fill-rule:nonzero;stroke:rgb(245,245,245);stroke-width:2px;"/>
        <path id="BA" d="M638.2,492.2L641,491.5L642.5,492.3L642,494.8L640.4,497.5L640.3,500.1L640.8,500.9L643.2,502.1L646.5,505L646.2,505.8L643.1,505.7L642.6,506.5L645.8,510.2L645.6,512.4L643.1,512.1L642.4,512.9L639.2,513.4L640.6,515.6L638.3,515.8L636.3,517.5L635.8,519.2L635.9,520.7L634.2,520.9L633.7,521.6L634.3,524.6L635.4,526.2L635.3,527L634.2,528L632.5,527.3L626.3,523.5L625.7,522.6L624.1,522.7L623,522.1L623.3,520.5L620.3,518L618.8,516.4L618.4,514.2L616,513.1L611,509L609.3,507L606.5,504.7L604.2,502.3L602.9,498.3L599.5,495.1L597.6,493.8L597.5,492.4L597.8,487.4L599,486.8L600.8,487.2L602.5,489L604.3,490L607,486.8L610.2,487.1L611.7,485.9L614.4,487.5L616.9,487.6L619.7,488.3L621.4,487.7L623,489L625.2,488L627,488.3L628.8,488.1L631.4,488.8L633.6,489L634.7,489.8L636,492L638.2,492.2Z" style="fill:none;fill-rule:nonzero;stroke:rgb(245,245,245);stroke-width:2px;"/>
        <path id="BY" d="M724.5,321.5L726.3,322.8L727.5,322.4L729.4,322.3L732.5,324.5L734.1,323.6L735.6,323.3L739.2,324.5L739.4,326.8L741.1,328.3L743.2,327L745.9,325.9L749.3,325.9L752,326.8L754.4,328.6L757.9,330L758.3,332.5L757.7,334.3L759.8,336.4L760.3,337.7L759,339.7L759,341.7L763.1,343.7L763.6,344.2L763.1,346L764.5,346.6L766.3,349L767.8,350.4L772.7,352.5L773.4,353.3L773,356.1L778.3,356.6L781.5,357.9L781.5,359L782.2,360.1L785,361.5L785.6,363.2L783,364.2L782.7,365.1L779.7,366.9L776.2,366.7L773.8,365.2L770.9,365.3L769.5,368L773.4,371.3L774,372.3L773.8,373.8L774.8,375.3L775.3,378.6L776.9,380L778.2,381.8L773.2,381.7L771.8,382.5L770.1,382.1L769,382.6L766.8,384.9L766,386.1L765,389.4L766.8,393L766,394.4L763.3,393.5L762.8,392.3L760.8,391.2L753.7,391.8L751.4,392.6L750.8,392.1L748.3,389.1L744.5,390.7L743.9,391.8L742.9,391.5L742.1,390.2L737,389.2L735.1,389.9L733.2,389.4L732,391.1L731.2,389.7L730.1,389.3L727.1,389.4L726.1,389.1L724.3,387L722,387L715.9,386.1L709.4,384.6L701.6,384.2L699.2,384.3L696.9,384.8L691,385.3L690.2,386.7L688.6,388.3L686.7,389.5L685.6,389L683.7,388.7L682.6,389.2L682.7,390.6L681.7,389L681.6,387.7L682.4,386.2L682,385.1L682.2,382.7L681.4,381.7L679.6,380.7L676.3,379.4L676.3,378.2L678.3,375.5L679.1,375L683.1,373.3L683.7,371.7L682.8,367.8L681.1,364.2L678.2,359.3L676.1,354.2L679,354.6L680.6,354.3L684.3,354L685.9,354.9L689.2,353.6L691,353.7L691.8,351.1L693.8,351.3L695.2,350.1L697.3,349.6L698.3,348.9L700,351.2L702,351L702,350L701.1,348.9L699.2,348.4L699.7,346.4L700.7,344.9L700.3,342.6L701.4,339.6L704,339L704.8,338.4L705.8,336.4L709.4,336.5L709.8,335.4L711.1,334.4L707.2,333.4L707.9,330.3L707.9,328.5L710.5,327.9L711.7,326.4L712.8,326.1L715.8,326.5L718.9,326.6L719.3,324.9L721.8,322.5L723.2,321.7L724.5,321.5Z" style="fill:none;fill-rule:nonzero;stroke:rgb(245,245,245);stroke-width:2px;"/>
        <path id="CH" d="M514.1,449.1L514.9,450.2L517.5,451.5L518.7,451.5L519.6,452.2L518.1,456.7L518.2,458.4L519.4,458.5L522.7,459.3L523.1,460.3L524.6,461.1L526.9,461.5L528.9,459.6L529.7,459.9L530.2,461.4L529.7,464.5L530.2,466.3L528.3,466.1L527.3,465.2L526,465.5L525.4,467.3L526.9,470.8L525.7,471.1L524.3,469.2L523.6,469.1L520.7,470.2L518.7,469.4L517.9,467.3L515.9,467.4L515.9,470.3L515.4,471.4L513.2,474L513,475L513.7,476.7L512.5,477.4L511.6,476L510.3,474.8L510.7,473.6L508.5,473L506.1,471L505.9,468.5L504.9,467.9L501.5,470.8L502.1,472.3L500.5,474.5L498.1,475.9L495,475.1L492.4,476.1L490,476.6L488.6,475.9L487.7,474.5L485.4,472.2L485.9,470.5L485.1,468.3L482.9,468L481,468.1L478.7,469.6L479.2,470.9L476.9,472.5L475.5,472.4L475.5,471.4L477,470.4L477.3,468.9L476.5,468.2L477.6,465.3L480.6,463.1L481.1,460.2L483.2,459.3L487,455.3L487.6,454.4L486.3,453.3L488.1,451.9L489.2,451.9L490,452.7L492.7,452.4L493.5,451L495,450.3L496,450.6L498.8,450.7L502.1,450.1L504.7,450.3L504.5,448.8L505.8,447.6L507.1,447.6L508.5,448.6L509.3,448.4L510.4,449.3L514.1,449.1Z" style="fill:none;fill-rule:nonzero;stroke:rgb(245,245,245);stroke-width:2px;"/>
        <path id="CZ" d="M578.9,400.5L581,400.1L580.9,398.2L584.2,399L584.5,400.1L585.5,401.2L590.1,402.3L592.8,403.4L593.6,404.3L596.8,403.6L598.6,404.8L597.9,405.9L596.3,407.1L597.9,408L599.9,409.8L601.4,411.7L602.4,412.1L605.9,409.6L604.2,407.2L605.5,407.2L607.7,407.8L611,409.7L614.6,409L614.6,410.6L613.2,411.1L615.9,413.4L616.9,414L618.7,413L622.2,414.8L622.7,414.6L625.4,415.4L625.9,417.2L628.7,419.4L629.2,421L626.4,421.3L624.4,422.8L623.8,423.6L621.5,424.8L620.8,427.8L619.2,428.6L617.1,430.5L615.6,431.2L613.9,431.4L610.3,430.9L608.9,432.1L607.8,434.9L606.8,433.3L601.7,431.8L600.5,432.7L596.7,432.5L593.7,430.8L592.2,430.9L587.4,429.2L586,429.6L584.4,428.8L583.2,429L582.9,432.2L581.7,432.2L580.4,433.8L580.3,434.9L577.8,434.5L576.4,435.2L572.5,434.8L571.7,433.5L569.5,432.3L568.9,431.6L566,429.4L564.7,429.4L563.4,427.8L560.9,426.3L558,423.7L556.7,423.7L554.4,421.7L552.6,419L551.2,417.5L552.4,415.8L551.8,414.2L549.5,412.9L547,409.5L547.5,408.8L549.4,410.8L551.3,408.2L552.4,407.6L555,407L557.1,407.4L557.9,406.1L559.9,405.8L560.5,404.8L562.1,404.1L563.2,404.2L563.8,403L568.2,402L571.7,400.5L573.6,399.9L572.1,398.4L572.9,397.8L575.1,398.2L576.6,399.7L576.6,400.6L578,401.2L578.9,400.5Z" style="fill:none;fill-rule:nonzero;stroke:rgb(245,245,245);stroke-width:2px;"/>
        <path id="DE" d="M567.9,355.2L564.5,355.1L564.3,353.4L563.2,352.4L563.1,351.4L567.8,354L567.9,355.2ZM533.1,347.1L531.3,347.1L529.9,346.4L530.7,345.4L532.4,345.8L533.1,347.1ZM561.4,347.6L560.1,348.3L558.8,348.3L557.5,349.6L555.4,348.5L554.9,347.4L555,345.2L555.6,343.8L557.6,342.9L558.5,344.1L560.2,344.7L559.7,346.4L561.4,347.6ZM514.8,341L516.6,341.7L518.2,343.3L518.3,344.7L516.6,346.3L519.8,346L520.6,347.2L522.3,346.8L526.8,348.6L530,347.7L530.7,349.1L530.1,350.6L527.9,352.2L529.3,353.4L531.4,353.2L535,354.1L538.3,351.6L539.4,351.1L543,350.8L548.1,346.3L553.4,347.2L554.9,349.1L558.6,351.2L561.8,351L563.1,353L563.9,355.5L565.8,356.8L568.6,357.3L569.3,359.9L571.1,364L570.8,366.7L568.9,368.5L568.2,370.1L569.8,371.5L573.1,373.6L574.5,375.3L573.9,377.9L575.9,380.2L576.7,382.1L576,384.7L575.2,385.8L577.1,388.9L577.1,390.5L579.3,391.4L580.9,394.6L580.5,396.9L578.9,400.5L578,401.2L576.6,400.6L576.6,399.7L575.1,398.2L572.9,397.8L572.1,398.4L573.6,399.9L571.7,400.5L568.2,402L563.8,403L563.2,404.2L562.1,404.1L560.5,404.8L559.9,405.8L557.9,406.1L557.1,407.4L555,407L552.4,407.6L551.3,408.2L549.4,410.8L547.5,408.8L547,409.5L549.5,412.9L551.8,414.2L552.4,415.8L551.2,417.5L552.6,419L554.4,421.7L556.7,423.7L558,423.7L560.9,426.3L563.4,427.8L564.7,429.4L566,429.4L568.9,431.6L569.5,432.3L569.3,435.1L568,436L565.7,435.1L565,438L564,439L561.1,439.8L558,441.6L557.4,442.9L559.9,445.7L560,447L559.4,448.3L561.1,448.6L561.4,450.5L561.1,452L559.4,451.6L558.2,450.7L558,449.6L556.9,449.1L554.4,449.6L552.9,448.8L550.9,448.5L550.8,449.9L545.1,450.4L541.2,451.9L540.1,452.8L536.3,453.3L534.9,451.4L532.2,451L529.4,451.1L529.2,453L528.2,454.6L526.6,455.1L526.7,453.8L525.5,453.5L524.6,452.1L521.1,450.5L520.4,451L518.2,449.8L513.1,447.5L514.1,449.1L510.4,449.3L509.3,448.4L508.5,448.6L507.1,447.6L505.8,447.6L504.5,448.8L504.7,450.3L502.1,450.1L498.8,450.7L496,450.6L495,450.3L493.9,449L493.9,447.5L494.5,445.5L494.3,443.1L494.6,441.6L495.6,439.8L497,434.3L500.5,430.5L500.4,429.2L498.8,428.6L494,427.8L492,426.4L489,427L486.9,426.9L486.6,426L485.2,425.6L483.4,426.3L479.9,422L478.5,421.9L479.1,418.9L480,418L480,416.6L477.2,415.5L475.7,413.9L475.4,411.7L476,410L478.3,408.7L477.9,406.7L476.2,406L476.6,404.5L473.6,402.2L474.2,399.8L472.3,398.6L472.8,397.8L475,396.2L474.3,395L475.6,392.2L475.6,391L472.5,386.9L473.2,385.8L475,385.1L477.3,385.9L481.8,384.6L482.5,383.6L481.5,382.7L481.8,381.8L484.4,380.2L485,377.6L484.2,376.6L481.6,376.3L480.9,375.3L481.5,373.7L484.6,373.8L485.7,370L486.4,368.3L486.3,364L484.6,362.6L485.1,359.9L486.2,358.5L487.1,358.1L491.1,357.8L495.6,357.9L497.5,360.1L496.9,361.3L498.5,361.6L499.4,359.2L500.8,360L501.9,359.9L501.4,358.2L501.6,356.6L502.5,355.2L505.8,355.8L509.4,355.5L509.5,354.9L506.7,354.4L505.8,353.3L505.6,349.4L504.1,348.6L502.5,348.9L502.5,347.4L505.9,346.3L505.9,345.3L502.5,341.5L502.3,339.9L505,340L510.2,341.3L513.3,340.6L514.8,341Z" style="fill:none;fill-rule:nonzero;stroke:rgb(245,245,245);stroke-width:2px;"/>
        <path id="DK" d="M533.5,340L535.6,341L538,341.3L538.4,343.2L534.9,343.9L529.8,341.8L529.9,339.3L532.2,339.1L533.5,340ZM547.2,338.9L544.9,339L543,340L542.7,338.8L544.3,337.8L545.5,338L547.2,338.9ZM518.4,340.1L517.2,340.3L515.5,339.8L514.9,337.5L517.6,338.6L518.4,340.1ZM526.4,342.1L525,340.6L527.5,337.7L528.2,337.5L526.4,342.1ZM576.5,338.1L574.1,337.9L571.7,336.9L571.8,334.9L572.3,334L576.8,336.3L576.5,338.1ZM524.4,329.4L526.7,333.7L526.6,336.5L524.8,337.7L522.7,337.7L517.3,336L515.6,333.1L515.5,330.8L520.3,329.4L522.9,330.2L524.4,329.4ZM547.7,329.6L546.7,330.2L546,329.3L546.9,328.4L547.7,329.6ZM523.8,326.8L522.9,326.8L522.9,323.8L524.4,325.4L523.8,326.8ZM546.4,326.8L546.5,328.3L545.8,329L543.8,329.7L542.7,331.5L544.7,332.7L545.2,334.2L544.2,334.9L541.6,335.6L541.6,341.2L539.4,341.8L537.9,339.7L537.8,338.8L536.5,335.7L534.5,335.3L532.3,335.4L530.8,333.6L530.9,331.5L529.9,329.5L528.6,328.9L529,327.5L532.1,327.3L533.6,325.4L533.6,324.5L535.4,324.3L536.2,325L536.3,327.6L537.9,328.1L539,325.2L538.1,324.1L542,321.9L543.1,321.8L546.1,322.7L545.7,324.8L546.4,326.8ZM514.8,341L513.3,340.6L510.2,341.3L505,340L502.3,339.9L501.8,337.8L501,336.4L502.1,336.1L501.2,332.2L498,330.9L495.5,329.5L496,323.9L495,321.6L495.1,314.7L496.4,314.6L499.5,315.4L501,316.3L501.6,314.4L503.2,312.8L505.2,312L506.8,313.3L507.1,308.8L505.5,308.3L504.2,308.7L502.9,310.6L501.9,313L500,313.2L498.5,313.9L496.1,312.5L496.2,311.1L497.8,309.2L499.8,307.3L502,307.3L503.6,306.7L507.5,306.8L510.3,305.5L513.1,301.9L514.6,300.4L517.9,299.9L520.9,298.2L520.1,300.7L521.3,302.4L521.3,305.4L520.4,306.4L519,308.9L519.2,314.5L521.7,316L525.8,316L526.8,317.1L526.1,319.3L523.5,320.7L522.6,320.7L521.2,319.6L520.1,320.5L518.9,325.6L516.9,325.5L515.7,326L517.1,327.2L515.8,328L512.4,331.1L513.5,334.5L513.3,335.4L511.8,336.7L511.2,337.8L513.5,338.1L514.8,341Z" style="fill:none;fill-rule:nonzero;stroke:rgb(245,245,245);stroke-width:2px;"/>
        <path id="EE" d="M655.5,285.3L659.4,285.5L663.4,287.3L661.6,288L657.9,290.5L657.6,291L655,290.9L653.6,291.1L652.6,292L651.7,294.8L650.1,295.3L649.8,294.4L651.4,292.6L649.9,291.2L648,290.5L648.9,288.7L647.3,287.1L648.8,286.9L649.8,287.4L651.8,286.9L652.3,285.9L655.5,285.3ZM663.8,286.3L662.9,286.5L660.5,285.4L661.5,284.4L663.4,284.9L663.8,286.3ZM658.4,282.3L657.6,283L656.7,282.4L655.8,284L654.5,284.3L652.6,281.8L649.7,281.3L648.4,280.6L652.9,280.2L654.1,278.6L655.4,278.7L655.8,279.6L657.9,279.9L658.8,280.9L658.4,282.3ZM711.6,301.2L709.7,301L706.3,300L702.3,301.2L699.5,300.1L696,297.4L695.4,296.7L693.1,296.2L687.5,293.7L686.4,294.4L684.9,293.4L676.5,296.2L677.5,292.8L677.6,289.2L675.3,288.8L674.4,290.1L673.1,290.4L669,289.1L667.8,287L666.2,285.9L665.4,284.7L665.4,282.9L663.9,280.9L664.6,279.8L663.9,277L666.9,275.8L670.2,275.6L671.1,274.3L673.1,273L675.4,273.2L678.5,272.2L684.8,272.3L685.2,270.6L688.4,270.6L696,271.8L697.8,271.8L700.6,273L702,273.3L706,273.3L712.3,273.8L713.5,272.8L715,274L714,275.4L712.8,275.8L711.9,279L711.1,280L709.4,279.7L706.9,279.9L704.9,280.4L703.6,281.5L703.7,282.6L706.3,284.9L707.7,287.7L710.3,289.9L711.1,291.2L713.5,294.1L715.3,296.6L713,297.2L711.8,299.2L711.6,301.2Z" style="fill:none;fill-rule:nonzero;stroke:rgb(245,245,245);stroke-width:2px;"/>
        <path id="FI" d="M646.5,260L648.5,260.2L647.9,263L645.6,261.2L646.5,260ZM644.6,260.5L642.5,259.9L643.4,259.1L644.6,260.5ZM638.1,257.8L636.6,258.5L636.3,256.8L638.1,257.8ZM663.6,194.9L662.1,195.4L660.8,195.1L660.6,194.2L662.6,193.6L663.6,194.9ZM693.7,140.3L690,141.6L691.6,142.4L692.4,143.6L690.4,146.8L690.5,147.4L693.6,151.4L700.8,153.1L703.1,154.9L706.7,157.2L708.5,158.1L708.6,160L705.6,163L703,166.1L701.8,167.8L702.2,169.5L704.8,171.6L707.1,173.8L710.1,177.3L713.1,179.8L716.1,184L716.5,185.4L712.8,186.1L714,187L713.4,188.3L713.7,190.2L713.2,191.7L715.1,192L715.4,193.3L713.7,194.3L713.7,195.2L715.1,196.9L716.1,197.5L719.3,198.1L720.2,199.7L719.2,201.4L721,203.6L725.5,205.4L726.2,206.7L726.4,208.4L724,211.4L722,212.2L722.7,213L727.2,215.6L733.8,218.5L736.4,219.8L738.5,221.7L740.7,223.3L741.2,224.3L739.6,228.8L738.9,230L736.7,232.2L733.3,235L731,237.3L725.7,243.2L723.8,244.7L721.7,246.9L716.8,250.2L716.1,251L713.6,252.5L708,257.7L704.5,258.7L701.9,257.6L700.1,257.8L698.9,258.6L696.4,258.8L694.4,259.4L693.4,258.7L692.7,259.3L690.8,259.5L688.8,258.5L689.1,260L685.8,261.5L685,260.6L683,261.6L680.9,261.8L679.8,262.6L673.9,263.7L672.4,265L671.2,264.7L664.5,265.8L661.6,265.6L658.9,267.6L657.1,268L658.6,265L656.2,263.9L655,262.3L654.3,262.7L654,264.2L652.5,265L650.5,264.9L650.1,262.5L650.9,260.2L647.3,259.6L643.5,258.2L642.6,258.1L641.9,256.8L639.9,257.7L637.8,256.8L636.1,251.5L636.1,250.2L637,248.6L636.9,245.2L636.3,243.2L637.4,242.6L636.5,241L634.3,238L632.7,236.9L633.2,233.6L632.6,232L630.7,230.9L629.6,228L630.2,225.6L632.6,223.4L632.6,222.2L633.5,221.1L633,219.8L635.7,219.3L636.7,219.7L639.1,219.3L641,218.3L639.9,216.5L641.4,215.8L642.6,214.6L642.5,213.6L644.8,213.1L647.2,211.2L649.5,210.1L651.8,208.2L652.9,208.1L653.2,206.8L655.7,204.9L656.5,203.3L658.8,201.5L661,197.6L664.8,196.4L668.6,196.7L668,195L669,194.7L668.4,193.4L667.4,192.8L667.4,188.2L666.1,187.3L661.6,185.7L659.9,185.6L658.7,184.4L654.1,183.7L652.5,181.2L650.6,179L648.8,178.4L647.5,175.8L647.5,174.5L649,173.2L648.9,171.4L649.6,170L649,169.1L645.7,166.5L644.9,164.9L645,163.8L646,163L645.4,161.7L642.6,161.3L642.9,159.4L642.2,158L641.8,155.6L642.9,154.6L641.1,153.7L639.2,152.2L637.8,152.1L636.6,150.5L633.1,148.7L624.8,147L620.6,145.2L615.8,142.9L612.9,141.8L612.5,140.9L609.6,140.1L610.1,139.7L612.2,139.7L614.1,140.1L614.6,139.5L613.6,138.1L615.5,137L619.1,137L627,142.5L628.4,144.3L635.3,144.9L636.1,145.4L637.9,145.3L641.6,144.4L642.8,143.2L644.3,143.3L647.9,144.4L651.8,145.2L654.4,146L655.7,145.4L656.2,143.7L657.8,142.4L659.9,142.1L661.4,140.7L660.7,137.5L661.3,135.8L662,132L664.6,130.3L666.3,128.5L668.4,128.3L672.2,128.7L673.1,128.5L676.6,126.9L679.5,126.6L681.3,127.8L685.5,129.8L689.7,130.9L693.3,131.7L695.9,134.4L695.2,135.4L692,138.3L692,139L693.7,140.3Z" style="fill:none;fill-rule:nonzero;stroke:rgb(245,245,245);stroke-width:2px;"/>
        <path id="GE" d="M972.9,547.7L970.6,548.2L971.1,548.9L967.6,549L966.5,549.2L963.3,548.9L958,550.2L953.6,550.5L952.3,549.3L950.4,549.1L949.3,547.4L945.8,544.9L944.6,544.5L944,543.4L942.6,543.1L941.2,543.5L940.3,545.4L936.9,544.6L933.3,544.5L932.2,545.5L927.9,544.2L929.8,541.2L930.2,539.5L929.8,537.1L928.1,534.4L924.4,526.4L923.3,525.2L919.3,523.8L918.2,522.2L915,520.1L910.9,519.2L906.1,516.3L903.2,514.6L904.1,512.5L904.9,512.3L909.7,513.2L911.2,512.8L917.1,515.3L920.7,516L923.8,517.7L929.8,518.2L932.6,517.6L934.4,517.6L936.4,518.7L938.8,518.5L942,519.7L943.5,521.3L947,522.7L949.8,523.5L953,525L953.2,527.4L955.7,527.8L960,525.7L962.1,525L963.9,525.2L965.8,527.1L966.6,524.9L971.2,526.6L973.3,528.4L976.1,528.3L978.3,529.3L978.1,533.5L981,534.9L982.6,536.1L986,536.8L989.1,538.3L987.9,540.4L986.7,540.7L986.7,542L987.8,542.8L988.7,544.3L993.2,546.9L994.1,547.7L993.9,549.7L992.1,551.1L988,549.1L986.3,549.6L983.1,548.7L981.7,547.7L981.8,547L977.8,545.6L975.9,545.2L972.9,547.7Z" style="fill:none;fill-rule:nonzero;stroke:rgb(245,245,245);stroke-width:2px;"/>
        <path id="GR" d="M712.9,637.7L715.2,637.7L716.9,636.7L719.1,640.4L720.8,640.3L724.3,639.4L728,639.6L729.4,640.6L732,640.8L734.3,641.3L737.6,640.6L738,641L738.1,643.8L739.3,644L740,643.3L741.7,642.7L743.5,642.7L745.1,641.9L744.7,645.4L743.8,645.8L739.4,645.7L731.3,646.7L726,647.1L725.3,646.9L724.6,644.7L721.3,643.6L715.1,642.6L713.6,642.2L710.5,642.4L709.4,641.4L709,639.6L709.2,637.7L710.6,638L711,636.6L712.9,637.7ZM756.3,638.8L754.7,636.7L755.8,636.2L757,638.6L756.3,638.8ZM701.6,627.4L700.2,627.6L699.5,625.4L700,624.4L702.1,626.5L701.6,627.4ZM764.3,631.5L762.6,631.1L763,629.3L762.3,627.7L764.6,625L767.8,623.7L768.7,624.6L767.8,627.1L766.9,628.4L767.3,629.4L765.7,629.6L764.3,631.5ZM745.3,621.2L743.8,622.4L742.9,621.8L744.8,620.6L745.3,621.2ZM751.5,619L751.5,618.3L752.8,617.2L755.3,616.2L756.5,616.8L754,618.2L752.5,618.3L751.5,619ZM729.3,613.6L728.4,614.9L727.1,614.2L727.5,613L728.6,612.4L729.3,613.6ZM732.9,615.2L731.8,615.8L730.4,613.6L732.3,611.6L733.2,612.3L733.3,614.1L732.9,615.2ZM738.3,606.4L738.9,604.8L740.5,604.7L740.5,605.8L738.3,606.4ZM716.6,605.7L715.6,605.3L716,604.1L717.1,604.6L716.6,605.7ZM748.2,602L751,602.7L750.3,603.7L748.7,604.6L747,603.7L745.8,602.5L748.2,602ZM671.5,602.1L671.9,603.3L670.8,604.3L669.2,603.1L668,601.3L668.9,600.2L669.8,601.4L671.5,602.1ZM724.6,602.8L723.2,602.7L720.8,600.6L721.7,599.2L722.6,600.4L723.9,600.5L724.6,602.8ZM667.3,593.1L667.6,594.9L668.5,595.2L669.8,596.8L669.6,598L667.5,597.2L666.5,597.4L665.4,595.4L664.1,595.6L664.7,593.8L666.1,593.9L667.3,593.1ZM738.1,595.6L737,596.5L735.2,594.8L736.6,593.5L734.5,591.1L734.4,590.1L736.5,589.6L737.8,590.5L738.4,591.7L738.8,594.3L738.1,595.6ZM667.9,589.5L666.6,589.6L666.2,588.7L667,586.3L668.1,586.6L668.3,589.1L667.9,589.5ZM702.5,584.1L703.4,585.8L708.9,588.3L711.7,588.6L713.4,591.2L713.2,591.8L714.7,595.6L715.8,596.5L718.5,596.8L718.9,598.7L718,599.5L716.1,598.8L714,597.2L713.6,595.9L711.4,593L707.8,592.8L706.3,592.1L705.7,590.4L704.2,589.5L702.2,587.6L700.7,586.5L697.7,585.4L697.1,584.7L699,583.4L701.1,582.9L702.5,584.1ZM740.4,578.3L740.3,579.2L742.2,580.7L742.9,581.7L741.7,583.8L737.7,583L736.9,582.2L738.5,580.9L737.6,580.4L736.4,581.9L734.2,581.2L733.3,580.3L734,578.9L735.5,579L737.2,578.2L737.2,577.6L739.5,577.4L740.4,578.3ZM659.1,576.7L657.8,577L656.6,576.2L655.4,574.3L653.2,572.1L653.9,571L655.5,570.6L656.9,571.8L655.8,573L656.6,573.7L657.5,576.1L659.1,576.7ZM726.9,568.1L726.2,569.5L726.1,570.8L722.3,570.1L722,567.8L724.2,567.7L725,568.5L726,567.6L726.9,568.1ZM729.3,561.2L727.9,561.6L726.2,560.3L727.6,559.8L729.3,561.2ZM717.4,558.2L715.8,558.8L714,557.7L715.1,555.4L716.4,555.5L717.4,556.8L717.4,558.2ZM733.3,556.5L732.8,555.8L730.7,554.6L726.1,554L723.8,553.1L722.9,553.3L720.9,552.3L719.7,552.7L717.2,554.4L715.7,554.2L714.1,553.2L711.9,553.6L710.2,555.5L708.4,556.5L706.6,556.1L704.3,556.1L704.1,557.2L706.1,559.3L705.6,560.3L706.1,561.3L708.2,561.4L710.7,562.7L710,563.4L706.8,562.2L705.6,562.1L704.4,563.3L707.9,566L708.4,567.4L707.8,568.3L706.3,567.5L703.8,564.3L700.7,563.7L700.3,564.3L701.5,566.7L704.4,568.4L703.8,569L700.8,568L699.7,566.4L699.3,564.4L693.8,561.6L692.4,558.8L690.2,560.1L690.6,562.1L690,565.9L690.4,567.2L693.9,570.9L695.2,573.6L697.8,575.7L700.4,578.9L701.1,580.7L699.8,581.8L698.5,581.3L698.8,579.4L696.6,578.2L694.7,579.4L696.2,581.7L696.7,582.9L696.3,584.2L694.7,585L692.1,585.1L694.5,586.5L697.8,587.5L699.4,588.6L700.9,588.7L702.6,590.8L705.2,591.4L706.9,593.5L708.9,594L710.6,594.8L711.6,596.9L711.9,599.8L712.5,601.9L712.6,603.6L711.5,604.1L710.2,602.5L706,598.9L705,598.5L704,599.2L701.1,599.7L699.2,601L700.7,602.3L700.8,603.5L701.6,605L703.6,605.4L705.6,607.8L702.6,608.8L701.5,609.5L700.7,609L700.5,607.8L696.2,605.6L695.6,606.2L696.3,608.6L697.6,610.2L699.8,614.5L701.1,618.2L700.9,620.3L701.9,621.8L702,623.3L700.3,622.1L698.1,619.6L697.3,618.1L695.1,618.2L693.8,621.5L694,623.4L692.4,622.3L692.2,619.4L690.1,616.6L689.2,616.2L687.9,614.3L686.4,614.9L686.3,617.8L685.9,618.8L683.7,616.9L681.4,613.4L681.2,611.6L682.6,609.9L682.3,608.7L680.7,606.2L678.6,604.7L677.4,604.2L676.7,602.6L674.7,601.3L674.7,600.3L676.7,598.6L677.7,596L679.6,596.5L681,596.3L683,593.9L684.6,594L688.5,596.1L692.7,597.3L694.8,598.3L696,599.4L697.6,599.7L697.1,598.3L697.9,597.9L700,597.9L700.2,596.3L698.2,595.7L697.4,595.9L695,594.5L692.7,593.7L690.5,592.2L689.3,593.5L688.1,593.5L684.7,592.6L682.6,593.3L678.4,594L677.3,592.7L674.7,593.7L673.7,593L671.8,588.8L670.1,586.9L668.9,586.4L668.7,584.5L670.2,584.3L672.6,585.2L673.5,584.6L672.9,583L670.4,582.8L668.6,583.3L665.8,581.1L664.3,579.4L662.1,578.3L660.4,574.9L657.8,572.3L660.5,573.2L661.2,572.5L661.5,571L662.4,570.3L661.4,568.1L663.1,566.8L665,566.5L665.6,566L665.9,564L667.1,560.9L668.8,560.1L669.6,557.5L668.5,555.7L668.5,554.6L673.1,554.3L674,553.7L676.3,554.3L678.7,553L680.4,550.5L681.2,550.2L684.2,549.8L687.5,550.4L690.4,549.4L690.6,547.3L692.6,547L695.6,547.2L696.6,546.2L699,546L701.6,546.2L704.6,545.1L706.5,544.9L706.7,544L710.9,544.1L712.5,543.6L713.7,545.3L716.1,546.7L717,546.1L720.7,547.3L722.4,548.4L725.8,547.5L729,547.1L730.8,547.4L733.3,546.2L733.5,545.4L732.6,542.7L731.9,541.7L733.5,540.6L735.1,541.1L736.3,541.4L738.6,542.9L739.5,546L736.1,548.5L736.6,552.9L734.1,556.1L733.3,556.5Z" style="fill:none;fill-rule:nonzero;stroke:rgb(245,245,245);stroke-width:2px;"/>
        <path id="HR" d="M611.2,521.2L613.5,521.6L612.4,522.5L611.2,521.2ZM624.1,522.7L625.7,522.6L626.3,523.5L632.5,527.3L634.2,528L635.4,529.9L630.6,526.8L626.2,524.3L623.1,523.6L618.8,521.6L618.3,520.7L624.1,522.7ZM617.8,519.2L617,519.3L611.4,519.2L609.7,518.9L609.2,517.6L611,517.8L611.5,518.4L617.8,519.2ZM612.5,516.9L610.5,517L607.9,516.2L608.2,515.1L613,515.7L612.5,516.9ZM591.3,500.4L591,500.8L587.7,498.1L587.4,496.2L590.2,498.9L591.3,500.4ZM586.4,493.9L584.5,493.7L585.3,492.6L586.4,493.9ZM582.2,495.4L581.3,495.3L579.6,491.1L580,489.9L579.2,487.9L580.1,487.6L580.6,489.7L581.6,490.6L581.5,492.2L582.2,495.4ZM585.9,490.5L584.4,490.8L583.4,489.8L582.1,489.6L581.1,488.6L582.1,487.9L582.6,486.7L585.9,490.5ZM635.4,475.8L634.7,477.3L636.3,480L636.5,481.6L637.8,482L637.4,484L638.6,485L641.6,486L642.5,487.5L640.2,487.6L638.5,488L639.2,490.6L638.2,492.2L636,492L634.7,489.8L633.6,489L631.4,488.8L628.8,488.1L627,488.3L625.2,488L623,489L621.4,487.7L619.7,488.3L616.9,487.6L614.4,487.5L611.7,485.9L610.2,487.1L607,486.8L604.3,490L602.5,489L600.8,487.2L599,486.8L597.8,487.4L597.5,492.4L597.6,493.8L599.5,495.1L602.9,498.3L604.2,502.3L606.5,504.7L609.3,507L611,509L616,513.1L618.4,514.2L618.8,516.4L620.3,518L623.3,520.5L623,522.1L619.5,519.3L616.9,517.8L613.8,515L610,513.9L607.3,512.7L604,513.3L602.2,513.1L601.5,510.9L595.7,507L591.4,503L590.6,501.7L593.7,500.5L592.3,499.7L588.4,496.3L587.2,494.7L587.1,490.6L586.3,488.9L583.4,486.7L582.3,485.6L580.2,484.9L578.8,485.8L578.5,487.7L575.5,492.7L574.2,492.7L571.1,488.5L570.6,486.6L569.3,482.7L570,482.2L570.5,482.8L573.8,483.6L575.2,482.3L576.3,482.8L579.9,482.7L580.5,482.4L581.7,480.2L584.3,482.3L585.8,483L587.1,482.5L589.1,483.2L590.7,483.4L591.9,483L591.1,480.7L591.8,480L590.8,478.9L592.9,477.9L595,477.3L595.4,476.2L595.2,474L594.3,473.1L594.7,471.7L599.1,470L599.8,469L601.8,469L601.8,467.3L602.7,466.5L605.2,467.1L608.1,468.3L609.8,469.5L610.7,470.8L613.4,472.6L615.6,474.8L616.9,475.5L619.4,476.1L620.7,477.4L624,478.3L628.9,478.5L631.4,477.6L632.5,476.2L635.4,475.8Z" style="fill:none;fill-rule:nonzero;stroke:rgb(245,245,245);stroke-width:2px;"/>
        <path id="HU" d="M671,437.8L672.5,437.8L673.9,440.1L676.1,440.9L677,442L679.3,442.4L680.2,443.1L680.9,444.8L678.7,447.1L674.1,448.2L672.2,450.6L671,451.6L671.1,453.3L669.7,454.7L669,457.2L667.6,458.7L667.6,459.9L666,462.6L666.2,463.9L664.1,465.4L662.6,470.1L661.3,471L658.7,470.7L656.2,472.7L654.8,472.2L651.6,473.1L650.6,472.6L647.8,472.3L646.7,472.5L643.8,472.1L642.8,472.4L641.3,474L639.1,475L637.5,474.5L635.4,475.8L632.5,476.2L631.4,477.6L628.9,478.5L624,478.3L620.7,477.4L619.4,476.1L616.9,475.5L615.6,474.8L613.4,472.6L610.7,470.8L609.8,469.5L608.1,468.3L605.2,467.1L603.3,464.9L601.9,461.6L599.5,461.5L601.3,459.8L603.8,459.3L604.1,457.5L603,455.9L603.5,455.2L603.1,453.7L605.3,452.5L605.8,451.1L605.3,450L602.7,449.3L604,447.9L606.5,448.8L610.4,448.5L609.7,446.5L610.3,444.6L610.9,443.9L613,444.2L617.2,446.9L618.8,447.6L623.5,447.7L630.5,447.3L631.1,446.3L630.6,445L631,444L632.4,443.3L636.7,442.9L639.1,442.3L640.1,440.8L640.8,440.6L644.3,442L649.3,439.5L650.9,436L652.7,435.6L655.4,435.7L657.9,436.3L662.5,435.6L663.9,436.5L666.1,438.7L666.7,438.9L671,437.8Z" style="fill:none;fill-rule:nonzero;stroke:rgb(245,245,245);stroke-width:2px;"/>
        <path id="IE" d="M329.3,352L330,353.1L327.8,353.5L329.3,358.7L329.9,359.6L329.9,363.7L330.8,366.9L330.9,369.4L329.6,371.2L328.7,373.3L328.5,375.1L326.9,377.2L325.4,378.1L327,379.6L324.2,380.4L321.6,380.1L320.3,380.9L316.4,381.1L312.7,381.8L311,383.6L308.5,384.3L307.5,385.3L305.2,386.1L303.5,384.9L302.5,385.1L302.7,387.2L299.8,388.5L298,388.8L297,389.5L291.2,390.9L289.3,390.4L286,391.2L284.8,391.1L286.4,389.3L288,388L284.2,388.6L282.8,389.1L282.2,388.5L285.4,386.6L282.1,386.7L279.1,386.3L278.7,385.3L281.6,383L284,382.1L283.9,381.2L278.8,381.3L279.3,380.2L281,379.2L282.8,379.1L284.3,379.7L285.4,378.9L284.8,377.2L288.7,374.9L291.7,374.6L295,373.9L298.3,373.1L295.9,371.9L293.6,373.7L291,374L289.1,373.5L287,373.5L289.7,371.5L291.3,369.8L290.5,369.1L292.5,366.8L296.1,365.8L294.5,364.5L290.6,364.7L289.2,363.4L286.6,363.5L287,362.3L283.5,362.1L284,361.1L283.4,360L286.2,359.4L286,357.4L287.9,356.6L289.9,356.2L290,355.1L288,354.9L286,355.3L286.8,353.2L286,352.2L285.6,350.5L284.7,349.5L287.5,349.3L288.7,348.8L293.4,348.9L295.3,350.2L297,349L301.8,349.9L302.4,347.3L306.2,345.8L307.4,343.8L303.7,344.2L300.1,343.2L300.8,342.4L302.9,341.7L304.8,340.1L304.5,339L306.2,336.3L309.3,335.5L311.7,335.5L313.3,334.6L314.5,336.6L313.5,337.6L314.1,338.5L315.3,337.7L314.8,335.6L315.7,334.3L317.6,334L318.2,333.2L321.4,334.9L318.9,336.4L318.4,337.1L316.5,338L315.5,340.3L314.3,341.9L312.1,342.7L310.5,342.6L310.3,343.4L311.3,344.8L308.4,345.7L307.4,347.1L310.1,349.1L310.3,350.1L312.4,350.5L313.2,351.2L316.1,351.5L318.5,349.7L318,348.8L319.9,347.2L321.2,347.7L323,350.4L324.4,350.9L324.3,352.4L327.2,352.4L329.3,352Z" style="fill:none;fill-rule:nonzero;stroke:rgb(245,245,245);stroke-width:2px;"/>
        <path id="IS" d="M240.3,177.9L241.5,178L244.3,177.2L246.5,176.1L247,177.2L244.5,179.6L246.7,180.5L248.7,180.8L248.6,182.5L246.9,184.1L247.7,184.4L251.2,183.9L252.2,186.2L253.7,186L256.1,186.3L257.5,187.5L258.7,187.2L259.2,188.1L258.5,189.3L257,189.9L259.1,192.8L259.1,193.9L258.1,194.6L256.8,194.6L255.8,196.7L254.6,197.8L252.6,198.8L250,198.3L248.9,199.8L249.1,201.2L247.8,202.5L242.5,204.6L240,204.6L237.4,205.1L231.2,207.1L226.5,209.9L224.5,210.6L221.4,210.9L219.6,211.4L213.7,212.2L211.7,212.7L210.5,213.8L210,215.2L206,216.3L202.2,217L195.8,216.5L190.4,215.2L185.9,214.9L182.1,212.4L179.2,211.4L175.6,209.6L173.3,210.7L160.9,211L160.1,210.5L159.9,208.4L161,207.6L162.3,208.8L167.3,207.7L170,205.8L172.5,203.1L169,204.3L168.8,202.4L167.9,201.3L166.2,200.5L165.9,199.7L167,198.8L164.7,197.6L162.1,197.7L155.5,197.2L151.7,198.2L149.7,198.3L148.8,197.3L148.8,196.2L150.3,195.9L152.1,196L156.2,195.4L157.6,194.8L158.4,195.3L162,194.2L163,194.4L167,194.2L171.4,194.1L172.5,193.3L172.9,192.2L170.1,193.1L166.4,192.6L165.8,191.7L169.4,190.1L172.1,189.3L171.3,188L168.1,188.2L167.4,187.4L164.8,187L163,187.3L162.1,186.8L159.7,187.4L154.5,188.3L151.2,189.2L148.1,188.1L145.7,187.9L147.1,186.5L149.1,186.4L150.8,187.2L150.9,184L152.1,184.3L154.9,185.4L154.2,182.6L156.4,182.7L154.2,181.1L154.7,180.1L156.3,179.8L157.1,178.8L159.5,178.8L161.8,179.9L162,181.3L164.1,181.3L165.2,180.5L166.1,181.1L166.6,182.3L167.8,182.3L168.2,180.1L164.6,179L164.3,177.6L168,177.5L166.3,176.4L163.3,176.6L161.9,176.2L164.5,175L167.9,175L169.3,175.2L171.6,176.9L173.6,177.5L176.7,179.8L178.9,180.7L178.9,181.9L179.6,182.7L177.3,186.1L178.2,186.8L177.4,188.4L179.3,189L180.3,190.7L181.2,188.9L182.7,187L185,185.7L185.9,185.8L186.8,186.8L187.7,186.9L189.1,184.9L189.8,180.6L191.5,179.7L193.3,180.4L194.6,182L197.2,184.1L199,183.6L199.1,181.3L200.1,180L202.1,179.7L204.3,178.9L206.6,178.7L208.3,180.1L209.5,181.5L211.2,182.6L211.9,184.4L212.8,184.1L212.6,182.4L211.2,179.8L211.5,178.9L215.6,179.1L218.6,181.4L219.9,181.1L223.5,178.3L225.8,179.1L227.6,179.2L230.4,178.4L231.2,177.2L230.3,174.9L230.9,174.5L233.5,173.9L236.2,174L238.8,176.1L238.7,177.1L240.3,177.9Z" style="fill:none;fill-rule:nonzero;stroke:rgb(245,245,245);stroke-width:2px;"/>
        <path id="IT" d="M602.6,595.6L601.4,598.1L598.6,602.4L597.1,607.5L597.4,609.5L599,610.9L598.3,611.4L599.9,613.2L600,614.5L598.2,616.4L597.8,618.1L597.9,619.6L595,619L593.6,619.3L589.9,617.9L588,615.1L585,613.1L582,613.1L580.6,612.6L577.7,610.7L574.7,609.3L572.1,607.2L570.4,606.8L568.9,605.8L566,605.8L563.7,604.2L562.4,601.9L563.7,598.2L565.1,597.4L566,596.2L568.3,598.5L570.1,597.7L571.5,596.1L573.9,596.2L574.4,597.1L575.8,597.4L578.3,599L579.7,599.4L583.1,598.4L586.1,598.8L588.9,598.3L590.6,597.7L591.8,596.7L593.2,596.4L596.7,596.7L598.7,595.5L599.5,595.7L601.5,594.5L602.6,595.6ZM524.3,554.1L525,555L526.8,560L526.2,561.6L524.9,563.6L525.7,566.4L525.1,577.9L524.5,580.8L523.6,581.2L520.7,580L519.2,580.3L518,579.7L517.7,582.7L515.9,584.8L512.9,584.6L512.2,584L509.8,580.2L509.4,575.9L510,574.6L510,572.1L511.1,572L511.1,570.3L509.3,569.1L509.3,567.2L510,565.8L509.9,563.2L509.1,562.3L508.3,560L506.1,557.6L506.2,554.2L509.6,554.8L510.9,554.5L514,553L516.1,550.5L517.5,550L519,548.2L519.7,549.1L521.9,549.9L523.1,551.4L524,551.9L523.3,553.3L524.3,554.1ZM532.6,523.3L532.9,524.7L530.4,525.2L529.3,524.1L532.2,523.9L532.6,523.3ZM570.5,466.7L570.3,467.6L567,469.9L567.7,471.3L570,472L568.4,474.1L568.7,475.1L570,475.3L569.6,477.3L571.5,478.4L573,479.7L573.2,481L571.7,481.1L572.4,480.5L570.4,478.3L568.4,479.2L565.2,478.3L563.1,480.3L561.6,480.7L559.9,481.8L556.7,483L554.9,482.6L553.9,483.3L553.5,486.4L554.3,487L555.8,489.6L557.5,490.7L556.8,492.6L555.9,493.3L554.6,492.8L554.3,494.5L555.2,499L556.6,502.2L557.8,503.5L560.5,505.7L563.2,506.8L568.3,510.5L571.1,511.6L571.8,512.3L573.6,515.1L575.2,518.3L577,523.4L578.3,525.9L580.6,528.8L585.4,532.9L589.7,535.8L593.7,537.7L596.7,538L603.7,537.6L606.3,538.3L606.7,539.5L606.3,540.4L603.4,542.5L603.4,544.2L604.9,545.4L612,548.6L619.2,551.2L621.4,552.6L624.1,554.7L630.5,557.6L631.6,559L635.6,562L637.4,564.4L637.9,566.2L636.4,570.6L634.8,570.1L632.9,568.8L629.8,563.4L624.8,562.9L621.9,561.6L621.2,560.2L618.9,559.8L617.6,560.7L616.2,562.7L614.7,565.7L613.2,570L613.2,571.7L614.3,573.4L617.2,574.4L619.6,575.9L621.2,577.5L621.5,581.3L622.4,583.4L621.5,584.7L619.6,584.4L617.1,585.1L615.4,586.5L614.7,587.9L615.2,591.3L614.9,592.7L611.6,595.2L610,597.7L609,600L604.7,600L603.6,598.5L603.5,596.3L604.1,595L605.7,594.3L606.6,591.5L606.1,589.5L607.2,587.9L610,587.2L610,584.3L608.6,583L607.2,577.9L604.8,573.6L603.4,569.8L602.3,568L600.9,567L597.2,566.7L592.6,564.1L592.3,563L592.9,561.9L591.8,559.1L589.8,557.4L587.2,558L586,557.9L585.9,556.4L583.9,555.1L581.2,554.9L580.5,554.2L577.9,550.2L576.2,548.5L573.9,548.6L570,547.7L568,548.4L564.8,545.8L562,544.9L556.3,539.6L554.5,537.6L551,535.4L548.7,532.2L546.9,531L542.9,529.6L542.6,528.3L539.5,525.2L537.8,524.2L536.5,522.1L534,521.6L534.1,518.9L532.9,515.4L531.2,513.2L530,507.9L529.2,506.4L527.4,505.3L523.4,504.1L517.7,500.7L516.6,500.6L513.2,499.3L511.1,499.1L508.5,500.3L505.4,503.5L502.9,506.9L502,507.5L498.6,508.7L495.6,509.2L495.4,507.7L497.5,505.1L497.2,503.1L493.9,503.7L488.8,501.3L487.9,500.4L487.8,499L487.1,497.7L488.5,495.2L489.3,494.5L488.8,492.8L485.6,491.4L484.1,488.3L484.9,487.9L486.8,488.1L488.5,486.8L489.7,486.5L490.5,484L488.7,482.4L487,479.8L486.1,479.2L486,477.6L488.6,475.9L490,476.6L492.4,476.1L495,475.1L498.1,475.9L500.5,474.5L502.1,472.3L501.5,470.8L504.9,467.9L505.9,468.5L506.1,471L508.5,473L510.7,473.6L510.3,474.8L511.6,476L512.5,477.4L513.7,476.7L513,475L513.2,474L515.4,471.4L515.9,470.3L515.9,467.4L517.9,467.3L518.7,469.4L520.7,470.2L523.6,469.1L524.3,469.2L525.7,471.1L526.9,470.8L525.4,467.3L526,465.5L527.3,465.2L528.3,466.1L530.2,466.3L529.7,464.5L530.2,461.4L533.2,461.7L534.1,462.5L536.2,462.9L537.3,462.5L538.5,460.3L539.9,459.7L543.3,459.4L546.4,459.6L551.1,458.1L551.1,460.4L554.2,463.9L555.3,464.4L563.9,465.9L567.9,466.2L570.5,466.7Z" style="fill:none;fill-rule:nonzero;stroke:rgb(245,245,245);stroke-width:2px;"/>
        <path id="LI" d="M519.4,458.5L518.2,458.4L518.1,456.7L518.6,455.2L519.7,457.7L519.4,458.5Z" style="fill:none;fill-rule:nonzero;stroke:rgb(245,245,245);stroke-width:2px;"/>
        <path id="LT" d="M707.9,328.5L707.9,330.3L707.2,333.4L711.1,334.4L709.8,335.4L709.4,336.5L705.8,336.4L704.8,338.4L704,339L701.4,339.6L700.3,342.6L700.7,344.9L699.7,346.4L699.2,348.4L701.1,348.9L702,350L702,351L700,351.2L698.3,348.9L697.3,349.6L695.2,350.1L693.8,351.3L691.8,351.1L691,353.7L689.2,353.6L685.9,354.9L684.3,354L680.6,354.3L679,354.6L676.1,354.2L675.3,351.2L674.2,350.3L669.7,348.1L667.4,347.4L666.8,348L665.5,346L665.5,343.9L666.5,340.8L665.2,339.5L663.8,338.9L662.9,337.6L657.2,337.5L654.8,336.9L650.9,335.5L648.9,334.3L647.1,334.5L646.5,333.3L646.7,331.7L645.6,329.3L644,326.4L643.3,322.6L646.1,320.9L649.7,319L654.4,317.6L660.3,318.1L664.6,318L665.6,318.9L667.2,318.2L672.1,318.7L674.4,318.8L678.1,319.7L682.7,319.3L684.4,318L686.7,317.8L689.1,320.7L695.2,321.7L696.1,322.1L701.5,325.2L704.1,327.3L705.6,328L707.9,328.5Z" style="fill:none;fill-rule:nonzero;stroke:rgb(245,245,245);stroke-width:2px;"/>
        <path id="LU" d="M475.4,411.7L475.7,413.9L477.2,415.5L480,416.6L480,418L479.1,418.9L478.5,421.9L477.2,421.2L475.2,421.8L473.8,421.8L471.7,420.6L472.8,418.9L470.8,416.5L471,414.8L472.4,412.3L473.7,411L475.4,411.7Z" style="fill:none;fill-rule:nonzero;stroke:rgb(245,245,245);stroke-width:2px;"/>
        <path id="LV" d="M711.6,301.2L713.5,301.5L714,302.6L717.2,304.3L717.9,306.5L717.1,308.1L716.8,311.2L718.6,310.9L719.6,311.5L719.9,312.7L721.6,314.8L722.9,315.6L724.8,319.8L724.5,321.5L723.2,321.7L721.8,322.5L719.3,324.9L718.9,326.6L715.8,326.5L712.8,326.1L711.7,326.4L710.5,327.9L707.9,328.5L705.6,328L704.1,327.3L701.5,325.2L696.1,322.1L695.2,321.7L689.1,320.7L686.7,317.8L684.4,318L682.7,319.3L678.1,319.7L674.4,318.8L672.1,318.7L667.2,318.2L665.6,318.9L664.6,318L660.3,318.1L654.4,317.6L649.7,319L646.1,320.9L643.3,322.6L642.5,319.8L641.9,314.3L642,311.5L643.9,309.9L644.7,308.7L645.3,304.2L647.8,300.6L650.2,300.2L653.3,299.2L656.8,298.3L658.2,300.2L663.1,303.2L664.3,304.2L666.6,307.6L671,309.4L674.1,308.8L677.7,306.4L678.7,305.3L678.7,304.2L677.5,299.5L676.4,297.5L676.5,296.2L684.9,293.4L686.4,294.4L687.5,293.7L693.1,296.2L695.4,296.7L696,297.4L699.5,300.1L702.3,301.2L706.3,300L709.7,301L711.6,301.2Z" style="fill:none;fill-rule:nonzero;stroke:rgb(245,245,245);stroke-width:2px;"/>
        <path id="MD" d="M751.4,483.2L749.4,480.9L750.3,480.2L748.9,475.2L748.8,472.6L749.7,467.8L749.2,464.9L747.8,462.6L746.4,459.7L743.4,457.6L742.1,455.9L740,454.1L737.5,450.9L736,449.6L733,444.7L730.5,441.7L728,440.1L725.9,440.1L726.1,439.5L728.4,438.1L729.1,438.3L733.1,438.4L734.3,437.4L735.1,437.7L736.7,436.7L740.2,437.7L743.8,440.1L746.3,440.4L746.9,441.6L752.5,442.2L753.9,444.1L755.3,445.1L756.7,444.4L758.1,445.8L758.7,448.1L758.1,451.2L758.7,452.4L761,453.6L763.9,455.6L763.9,458L764.8,459.9L766.8,461.2L768.9,462L769.9,463.6L770.1,466.5L773,468.2L772.4,468.9L769.5,469.3L768.3,468L766.7,468.6L764.6,467.8L762.7,467.6L760.6,466.6L758.1,468.2L758.6,470.3L759.6,472L759.2,474L756.9,475.7L756.9,477L754.4,479.9L754.9,481.3L754.5,482.3L752.5,482.5L751.4,483.2Z" style="fill:none;fill-rule:nonzero;stroke:rgb(245,245,245);stroke-width:2px;"/>
        <path id="ME" d="M642.4,512.9L642.8,514.1L645.4,515.8L647.3,517.8L650.3,519.4L652.4,519.9L657.7,522.8L657.8,523.8L656.2,524.2L656,524.9L654,525.3L654.9,526.8L654.7,528.1L651.3,529.3L650.5,527.2L649.4,526.9L646.2,532.2L645.4,532.5L642.9,532.3L644.5,534.2L646.2,535L646.5,535.6L646.5,538.7L644.4,537.5L643.5,535.7L640.4,532.8L636.9,530.8L637,529.8L635.4,529.9L634.2,528L635.3,527L635.4,526.2L634.3,524.6L633.7,521.6L634.2,520.9L635.9,520.7L635.8,519.2L636.3,517.5L638.3,515.8L640.6,515.6L639.2,513.4L642.4,512.9Z" style="fill:none;fill-rule:nonzero;stroke:rgb(245,245,245);stroke-width:2px;"/>
        <path id="NO" d="M458,260.9L458.1,262.6L457.1,262.5L456.4,261.4L456.2,259.4L456.9,258.9L458,260.9ZM456.2,249.8L454.4,249.8L454.7,248.5L455.6,248.2L456.2,249.8ZM488.7,217.9L486.4,217.7L485.4,216.9L488.2,216.1L488.9,216.6L488.7,217.9ZM492.3,213.3L492,212.4L494.7,211.8L495.6,212.8L492.3,213.3ZM520.3,196.7L516.1,197L515.8,195.9L517.9,195.1L519.1,195.1L520.3,196.7ZM527.1,186.2L525.1,186.5L525.2,185.4L527,185.1L527.1,186.2ZM531.2,180.5L531.1,179.4L532.1,178.2L533.1,178.6L532.8,180.1L531.2,180.5ZM534.3,155.6L532.8,156.3L533.9,153.7L535,153L535.4,154.5L534.3,155.6ZM542.8,150.4L545.1,150.6L544.6,151.4L543.2,151.7L542.1,152.5L540.2,152.7L538.3,153.7L536.7,154L536.3,152.8L537.2,151.8L538.5,151.8L539.5,150.6L542.8,150.4ZM555.2,141.4L557.4,143.5L557.1,145L555.9,145.7L552.6,145.8L551,144.9L548.8,145.5L547.2,144.4L548.8,143L551.4,143.4L551.9,141.7L553.6,142L554,140.5L555.2,141.4ZM561.5,146.4L562.8,145.3L564.3,144.9L564.9,142.7L566.7,142.2L568.3,143.2L569.2,144.4L569,145.5L565.9,146.7L563.4,148.7L561.8,148.5L561.1,149.2L558.7,149.8L557,148.9L556.1,149.8L554.7,150.2L553.5,149.8L550.6,151.3L547.8,151.6L546.8,150.5L549.9,148.6L555,148L557.9,145.7L558.3,143.2L558.9,142.3L557.6,141.7L557.8,140L560.2,138.3L561.5,136.9L563,136.6L563.9,137.7L562.8,139.1L561.2,140.3L562.3,141.8L562.9,144.2L561.5,146.4ZM577,132.7L578.4,133.5L579.9,133.2L582.2,133.9L583.2,135.4L582,136.3L582.4,138L578.6,138.5L577.7,138L576.2,138.9L574.8,140.3L572.6,139.7L572.8,138.1L572.5,135.8L573.2,135.3L576.1,135.6L575.7,133.6L577,132.7ZM701,130.1L699.2,130.5L699.4,128.7L701,130.1ZM608.6,126.3L607.3,126.7L605.5,126.4L604.8,125.4L607,124.4L608.7,124.7L608.6,126.3ZM593.5,126.6L594.5,127.3L596,126.8L597.1,127.8L595.7,128.6L594.9,129.8L592.9,129.9L590,132.2L589.9,133L584.9,133.5L583.4,133.2L585.1,130.5L586.8,130.5L588.5,129.7L588.2,128.9L590.7,126.9L591.3,125.2L592.7,124.2L593.5,126.6ZM598.3,124.6L599.7,124.8L601,126.4L598.7,126.4L596.7,124.6L598.3,124.6ZM635.6,120.3L636.1,121.4L632.8,123.5L631.2,123.6L629.1,122.4L629.2,121.6L631.1,120.7L632,120.8L634.7,119.4L635.6,120.3ZM639.5,120L637.7,120.5L636,119.6L635.8,118L636.6,117.7L639.8,118.9L639.5,120ZM633.1,116.8L632.7,117.6L630,119.7L627.8,120.4L626,120.1L625.2,120.7L623.2,120.7L621.2,120.1L619.2,118.9L622.7,118.8L623.3,118.3L624.8,118.3L627.6,117.9L628.7,118.2L630.8,116.8L633.1,116.8ZM693.7,140.3L692,139L692,138.3L695.2,135.4L695.9,134.4L693.3,131.7L689.7,130.9L685.5,129.8L681.3,127.8L679.5,126.6L676.6,126.9L673.1,128.5L672.2,128.7L668.4,128.3L666.3,128.5L664.6,130.3L662,132L661.3,135.8L660.7,137.5L661.4,140.7L659.9,142.1L657.8,142.4L656.2,143.7L655.7,145.4L654.4,146L651.8,145.2L647.9,144.4L644.3,143.3L642.8,143.2L641.6,144.4L637.9,145.3L636.1,145.4L635.3,144.9L628.4,144.3L627,142.5L619.1,137L615.5,137L613.6,138.1L614.6,139.5L614.1,140.1L612.2,139.7L610.1,139.7L609.6,140.1L604.5,140.3L607.1,141.9L607.2,143.9L605.8,145.8L604.2,146.7L607.1,147.6L604.6,149.2L603.6,149.1L595,147.4L592.1,147.3L588,146.4L585.9,146.9L585.9,147.7L586.7,151.3L584.6,154.4L578.3,152.6L576.8,153.5L573.1,155.4L571.6,158.9L570.5,160L567.8,160.6L567.3,161.7L570,164L571,165.3L570.8,166.7L569.3,167.7L566,170.6L563,173.5L561.7,174.4L562.7,176.9L559.4,178.4L557,178.9L553.2,179.3L554.6,183.2L554,185.9L553.9,190.6L550.6,195.6L546.2,200.6L550.9,202.2L552,205.1L552.1,206.3L550.4,208.5L543.3,207.6L540,208L536.7,209.5L533.2,213.3L532,214.3L532.5,215.8L530.5,218.6L533.2,222.7L532.1,223.8L532.7,226.6L532.6,228.4L535.1,232.8L535.1,234.4L534.2,240.8L538,242.9L539.2,243.3L542.6,246L542.2,247.9L540.9,250.4L538.5,250.4L536.7,251L537,252.6L540.1,257.5L540.6,258.9L540,261L539.9,263.8L538,265.8L536.7,266.6L534.1,267.3L533.2,269.7L531.7,271.2L533.3,275.6L532.7,279.5L532,280.9L530.1,281.1L529.1,279.3L528.7,278.3L522.7,277.1L520.4,274.2L520,271.1L517.5,272.3L518.1,273.4L518.1,275.7L515.6,279.6L514.5,279.4L513.2,280.2L511.9,280.4L511.3,279.4L510.2,279.6L509.4,280.6L506,281.9L507,282.6L505.3,283.6L504.7,284.5L502,286L497.7,289.9L495.4,291L493.8,292.2L492.4,292.2L490.6,293.1L486,294L482.9,293.6L480.8,294L479.7,293.3L479.7,292.2L478.5,292.1L477.7,293.3L476.1,292.9L476.8,290.5L473.7,290.4L469.9,288.8L469,288L465.9,286.7L464.5,285.3L463.7,283.7L464,280.1L464.6,279.6L467.3,280.4L470.1,281.7L470,280.5L467.6,278.9L468.4,277.1L468.2,275.5L470.8,273.4L470.4,272.7L467,274.7L463.9,275.6L462.8,276.8L461.7,277.4L459.6,277.4L459.1,276.5L459.6,273.2L460.8,270.5L462.6,269.5L466,270.2L467,269.2L468.3,269L470.7,267.8L466.6,268.3L465.4,267.3L468.2,264.9L469.4,263.5L469.7,262L471.9,260.3L473.7,259.5L475.3,260.1L476.8,258.2L471.8,259.3L469.8,260.4L467.1,263.2L466.9,264.3L464.9,265.2L463.4,266.7L462.8,267.9L460,269.8L458.6,270.1L458.6,267.7L459.7,265.7L459.4,264.1L462.6,264.3L464.4,263.1L461.7,263.1L460.3,262.4L459.1,260.9L458.5,259L459.6,257.2L457.4,255.2L456.9,253L456.8,250.5L457.7,250L459.8,250.4L462.2,250.2L467.4,249.3L470.8,249.9L472.2,249.8L474.2,249.1L476.1,249L478.3,250.2L479,249.7L484.4,248.5L481.4,247L481.5,248.4L477.9,248.7L474.7,248.1L473.4,247.5L472.9,248.8L471.8,249.1L468.4,248.6L463.7,248.9L461.6,249.6L460.2,249.5L457.7,248.3L456.8,247.4L456.5,244.8L459.3,244.5L457.4,242.2L455.5,240.9L455.3,239.5L456,238.2L457.5,238.4L461.3,238.3L467.3,239.8L472.2,239.5L471.4,238.9L468.5,238.9L461.3,237.6L459.1,237.7L457.9,237.4L457.2,236.4L457.6,234.5L458.7,234.1L459.9,234.7L461.8,232.4L463.7,231.4L465.7,230.9L467.7,231.9L469,231.8L473,231L471.7,230.5L468.2,231L468,230.5L470.4,228.2L474.6,227.8L480.5,228.3L482.8,229.1L483.2,227.3L488.5,225.9L481.7,226.7L479.9,226.2L475,226.9L474.9,225.6L477.2,223.3L481.3,222.4L483.2,221.3L486.3,221.1L488.9,221.4L490.1,222.7L494.5,224.4L489.4,220.4L490.5,218.7L493.8,218.3L493.8,216.7L491.6,216.4L491.6,215.2L493.5,214.3L496.3,213.6L499.5,214.4L498.9,215.7L499.8,216.2L501.5,214.7L505.4,213.9L508.2,216L508.7,217.1L509.8,216.6L512.5,216.1L515.2,216.4L517,216.2L516,214.9L516.4,213.9L518.8,212.9L520.5,212.6L523.1,211.4L522.3,210.4L520.9,210.1L523.8,208.6L522.1,208L519.7,208.9L518.1,209.8L519.6,210.8L518.5,211.9L512.4,214.7L509.4,215.5L508,215.4L506.1,212.9L504,212.8L505.3,210.6L506.9,209.8L508.3,207.5L510.6,206.2L513.8,202.9L516.6,201.8L517.5,200.7L520.5,199.2L523.5,198.3L523.8,197.3L521.1,198.2L521.5,196.1L522.9,195.1L529.7,192.3L531.3,193.6L533.4,193.4L535.7,191.8L535.4,191.1L533.3,192.1L531.8,192.1L531.4,191.5L529.3,191L529,189.8L530.3,187L533.7,183.7L534.2,182.4L535.5,181.7L537.2,181.9L537,180.8L534.9,179.7L541.1,178.6L544.1,178.6L546.5,177.7L547,176.7L540.6,177.8L538.2,177.9L537.4,175.2L537.6,173.7L539.5,171.5L540.9,171.3L542.6,170.2L542.7,168.7L545,167.9L547.1,165.8L549.4,165.3L550.8,165.5L553.8,164.8L560.4,164.7L560.5,164.1L554.2,163.8L550.7,164L550.3,163.4L553.1,160.7L555.1,159.7L556.8,159.9L558.6,160.9L559.2,160.1L557.6,158.6L558.3,157.1L555.7,158.2L553.9,158.5L553,156.5L555.3,154.5L557.6,154.5L557.9,153L561.2,151.7L563.1,151.5L564.6,150.9L565.2,151.3L566.1,153.6L567.6,153.9L568.6,153.1L567.3,152L566.2,150.2L568.2,148.7L570.5,148.5L573.1,149.2L575.4,149L576.3,147.8L570,147.7L569.2,146.8L570.4,145.6L572.6,144.8L575.1,144.7L577.5,143.3L578.4,142.2L578.7,140.6L580.1,139.3L584,138.5L583.4,136.3L584.2,134.9L585.2,134.3L587.3,135.8L589.1,136.3L588.6,134.9L588.9,133.7L591,133.7L592,133.2L592.3,131.9L593.7,130.7L598.4,130L598.9,132.5L599.6,133.9L600.4,131.1L602,129L604.4,128.1L605.3,129.2L604.9,133.5L603,135.9L604.5,135.7L607,133.4L607.6,132.2L606.9,129.4L607.5,128.6L611,128.5L612.9,128.9L613.6,127.4L615.3,127.3L617.1,128.2L621.2,129.6L619.9,127.4L618.9,126.6L616.8,126.1L614.6,125.1L615.8,124.1L618.2,124.4L620.2,123.6L622.4,123.4L623.5,124L624.3,123L626.8,122.5L629.6,123.4L631.2,126.1L633.6,127.5L633.5,126.1L634.1,124.2L636.4,122.2L638.5,121.2L639.9,121.1L642.8,117.7L641.2,116.7L644.5,114.4L645.6,114.3L651,116.4L652.5,115.5L655.9,116.3L655.1,117.3L652,120.2L651.5,121L651.4,123.2L650.2,124.6L651,126L652.6,125.6L654.4,124.3L654.5,123L658.8,119.3L660.7,117.2L663,115.5L664.5,115.2L665.4,116.3L665.2,117.8L665.4,122.1L669.1,120.7L670.2,117.7L671.3,117L670.5,115.6L670.9,114.5L673.2,113.2L675.4,113.6L678.7,113.9L681.4,114.7L681.6,116.1L680.8,117L677.9,118.1L678.6,118.8L680.6,118.2L681.5,123.7L682.4,121.6L683.4,120.9L683.5,119.4L684.3,117.5L686.1,116.2L688.8,116.2L692.1,117.9L694.6,118.2L696.4,119L698.8,118.3L700.8,119.3L700.9,120.3L704.7,120.6L708.5,122.2L709.1,123.8L704.7,124.8L702.9,125.8L699.6,126.2L688.1,125.5L688.5,126.2L696.8,127.7L697.4,128.2L697.8,130.3L699.6,131L703.1,130.8L703.1,129.5L706.3,130.1L710.1,130.3L711.2,132L710.9,133.5L708.5,133.6L704.3,132.2L703.9,134.5L702.8,135.4L697,136.7L695.9,139.3L693.7,140.3ZM653.2,112.6L656.9,113.1L659.1,114.5L655.5,115L653.8,114.9L651.8,113.1L653.2,112.6ZM313.6,116.5L313.5,115.5L318,114L319.9,112.6L323.3,112.1L323.1,113.9L320.1,114.7L316.8,115.2L313.6,116.5ZM582.8,71.5L581.8,72L579.9,71.2L579.1,70L582.1,69.9L582.8,71.5ZM592.4,21.4L596.3,21.6L598.3,23.5L599.7,25.5L601,25.7L605.7,25.3L609.1,26L607.7,27.1L607.7,28.3L613.2,29.6L615,29.7L618,29.3L624.5,31L617.9,32.1L615.9,34L612.2,35.3L609.6,35.3L607.3,36.6L605.1,36.7L603.6,34.8L605.8,33.5L602.7,33.1L601.5,33.6L591,34.6L589.9,34.4L589,33.2L591.8,32.6L592,31.5L594.5,29.1L589,27.5L587,26.3L586.2,25.3L583.7,24.4L583.7,23.4L582,23.5L581.6,22.3L592.4,21.4ZM638.6,20.8L637.3,20.8L634.7,20L635.4,19L638.6,20.8ZM501,21.2L504.5,22.7L506.4,23.2L508.7,24.7L508,25.6L506,24.4L502.4,23.1L500.1,22.9L496.8,20.4L495.3,19.6L494.5,17.9L498.1,18.6L499.7,19.6L499.4,20.4L501,21.2ZM656.6,17.8L659.3,17.9L659.2,18.5L651.9,18.1L648.1,18.8L648.5,17.9L650.9,17.3L654.6,17.2L656.6,17.8ZM546.7,7L548.1,6.4L553.5,7.2L556,8.1L557.3,9.1L555.4,11L557.1,12L560.3,10.3L563,10.6L564.7,11.5L565.7,12.6L565.5,14L568.6,15.1L572,14.9L574.4,15.2L575.9,16.2L577.8,16L578,15.2L580.6,15.4L583.6,16.2L581.5,17.1L583.6,17.9L587,18.5L589.1,19.1L587.6,20.5L584.4,20.5L581.5,20.8L576.1,21.1L573.1,22.7L570.6,24.5L570.2,26.1L570.8,27.2L569.3,27.7L566,27.9L566.2,31.8L565.4,33.7L562.1,34L560.3,35.1L559.1,37.2L557,39.2L558,40.2L555.9,42.1L557.1,43.9L556.1,44.5L554,44.8L551.8,44.5L549.5,43.4L542.8,41.2L538.5,38.8L532.5,37.5L529.2,35.9L527.7,34.6L528,33.2L530.8,33L533.7,33.7L535.4,31.8L546.7,30.7L554,30.5L552.1,29.2L545.2,29.9L540.9,29.7L538.8,29.8L536.7,30.4L532.4,30.9L527.8,30.8L524.9,29.8L523.6,27.8L524.8,27.2L528.6,27.3L535,26.4L538,25.6L541.1,25.5L540.6,24.7L542.4,24.3L544.8,24.1L550.4,24.2L550.6,23.6L548,23L547.1,22.4L549.7,20.6L547.5,20.7L544.5,22L542.7,22.5L538.1,22.8L536.4,21.2L537.3,20L536.5,19.3L535.2,20.6L533.1,20.9L531.1,20L529.2,20.5L529.9,21.5L529.3,22.5L531.3,23.4L529,24L526.9,25.1L523,25.3L518.5,25.4L513.9,23.8L511.7,22.6L509.9,21.4L507.2,20.8L505.5,20L505.1,18.9L503.7,18.2L503,17L507.4,17L505.7,15.2L506.2,13.6L502.8,13.7L503.2,14.6L501,15.6L499.8,15.4L497.5,13.5L495.1,11.1L495.5,9.8L494.3,8.8L495.8,8.1L498.3,9L499.1,8.3L502.9,7.9L507.5,9L507.9,7.9L512.1,8.4L515.1,7.8L520.1,7.5L522.1,7.9L521.1,9L514.8,9.3L510.8,10.6L516.5,10.4L517.5,10.5L518.1,11.6L521.1,12.1L523.4,13.1L524.2,12.6L523.6,10.4L528,8.1L530.1,8.5L532.2,9.4L536.2,12.4L538.5,14.3L544.6,17.1L543.9,15.6L539.7,11.1L538.8,9.4L539.7,7.7L540.8,7.2L540.4,5.9L541.7,5.4L544.1,5.7L546.7,7ZM681.4,4.7L673.4,5.1L672.5,4.8L688.2,3.4L689.9,3.9L681.4,4.7ZM562.5,2.8L560.7,3.4L557.5,2.9L558.4,2.2L562.5,2.8ZM581.1,3.3L586.7,3.4L588.2,4.3L593.7,5.4L594.5,3.9L593.9,1.7L595.8,1.6L597.5,1L600.6,1.3L600.8,2.6L600.3,4L602.4,4.1L605.2,3.8L607.1,2.7L609.5,2.8L610.8,2.2L612.2,2.8L620.4,3.5L623.7,4.1L628.9,4.1L632.6,4.3L635.4,5.3L636.5,7L635.6,7.4L628.9,9.4L627.3,10.1L624.9,12.4L620.8,13.1L617.3,12.8L614.3,13.5L612.4,14.5L610.9,14.7L601.7,14.3L599.5,13.2L600.7,12.3L592.5,12.6L583.3,12.5L582.3,12L576.7,11.5L572.5,10.4L573.6,9.9L579.4,9.9L578.7,8.4L575.8,8.3L574,8.7L569.7,8.9L565.7,8.8L563.8,8.5L560,7.5L559.3,6.7L562.1,6.3L564.2,5.6L559.7,5.3L557.8,5L557.2,4.1L563.1,3.9L568.1,4.7L567.4,2.5L571.3,3.6L571.5,2.5L569.5,1.1L571.5,1L576,1.7L581.1,3.3Z" style="fill:none;fill-rule:nonzero;stroke:rgb(245,245,245);stroke-width:2px;"/>
        <path id="PL" d="M666.8,348L667.4,347.4L669.7,348.1L674.2,350.3L675.3,351.2L676.1,354.2L678.2,359.3L681.1,364.2L682.8,367.8L683.7,371.7L683.1,373.3L679.1,375L678.3,375.5L676.3,378.2L676.3,379.4L679.6,380.7L681.4,381.7L682.2,382.7L682,385.1L682.4,386.2L681.6,387.7L681.7,389L682.7,390.6L683.9,392.4L683.9,393.7L686.6,396.5L688.5,399.3L689.9,400.3L688.7,401.6L690.5,404.2L690.6,405.5L689.4,407.3L686.4,407.8L681.6,412.4L679.2,415.1L675.8,419.5L675.2,420.5L676.7,424.3L676.6,426.1L678.5,427.5L678.1,428.4L674.8,427.7L673.9,427.5L668.2,425.6L667.4,424.2L666.4,423.5L663.3,422.5L659.7,422.2L656.5,422.4L655.1,423.9L653.3,423.8L650.9,422.8L647.9,422.9L645.6,423.9L644.5,426L642.8,425.4L641.4,425.8L640.8,423.1L639.4,422.7L636.4,419.7L634.2,421L633.2,422.7L631,422.7L630.5,421.2L629.2,421L628.7,419.4L625.9,417.2L625.4,415.4L622.7,414.6L622.2,414.8L618.7,413L616.9,414L615.9,413.4L613.2,411.1L614.6,410.6L614.6,409L611,409.7L607.7,407.8L605.5,407.2L604.2,407.2L605.9,409.6L602.4,412.1L601.4,411.7L599.9,409.8L597.9,408L596.3,407.1L597.9,405.9L598.6,404.8L596.8,403.6L593.6,404.3L592.8,403.4L590.1,402.3L585.5,401.2L584.5,400.1L584.2,399L580.9,398.2L581,400.1L578.9,400.5L580.5,396.9L580.9,394.6L579.3,391.4L577.1,390.5L577.1,388.9L575.2,385.8L576,384.7L576.7,382.1L575.9,380.2L573.9,377.9L574.5,375.3L573.1,373.6L569.8,371.5L568.2,370.1L568.9,368.5L570.8,366.7L571.1,364L569.3,359.9L568.6,357.3L571.4,358.2L572.1,357.7L572,355.9L567.9,355.2L567.8,354L569.8,354.4L573.6,353L580.1,351.2L587,349.5L590.3,349L592.3,346.8L594.2,345.1L598,344.4L599.3,343.6L602.1,342.4L608.7,341.2L614.2,340.8L619.6,343.1L618.7,343.4L615.7,342.2L617.9,345.7L619,346.9L621,347.8L622.7,348.1L627.6,347.6L629.8,346.5L630.3,346.6L636.9,347L659.8,347.9L666.8,348Z" style="fill:none;fill-rule:nonzero;stroke:rgb(245,245,245);stroke-width:2px;"/>
        <path id="PT" d="M306,611.9L304.8,612.1L300.3,614.6L299,614.6L296.5,613.5L292,613.1L290.5,612.8L288.7,613.5L287.2,613.5L286.1,614.5L285.3,614.2L286.3,612.1L287.9,608L287.9,605.4L288.3,603.2L288,601.1L287.3,599.7L288.4,596.2L288.4,594.4L287.5,592.1L290.3,592.4L288.6,591L287.1,591L284.8,591.9L283.3,592L283.4,590.6L282.9,588.8L284.9,588.2L286.5,586.5L286.2,584.9L285,586L284.4,587.4L281.6,588.1L280.1,587.6L280.1,585.7L280.7,584L281.1,581.7L281.9,579.5L281.7,578.1L283.3,576.8L284.7,574.9L289,566L288.4,565L290.1,558.4L291.3,556.1L291.9,551.8L291.7,549.8L291,547.8L290.3,543.5L290.3,542.1L289.4,540.3L289.5,539.3L290.9,537.6L292.1,536.5L294,535.6L298.1,534.6L299.1,536.4L297.8,538.3L298.7,539.6L301.7,538.5L304.6,538.4L306.8,539.2L308.2,539.2L310.7,538.3L311.5,536.9L313,537.4L318.2,537.5L318.9,538.6L319,541.7L320.9,541.9L322.8,542.8L323.1,543.9L320.6,546.4L318.5,547.5L316.9,548.9L315.8,550.5L313.8,552.1L314.6,554.1L315,557.6L314.6,561.4L315,562.5L312.3,564.6L312.1,565.6L313.5,566.9L313.5,568.8L311.8,572.3L310.8,572.8L306.5,572.8L305.4,573.1L306.5,575L307.9,576.2L308.2,578.1L309.8,581.3L311.5,581.7L312,582.5L311.4,584.9L308.2,587.9L307.3,591.9L310.3,596.2L312,596L311.3,598.4L309.2,599L305.7,603.3L304.9,605.5L306,611.9Z" style="fill:none;fill-rule:nonzero;stroke:rgb(245,245,245);stroke-width:2px;"/>
        <path id="RO" d="M751.4,483.2L752.9,484.8L754.7,485.7L758.7,486.6L759.3,485.4L760.2,485.7L761.8,485.2L764,483.9L766.2,483.7L768.4,484.4L770.3,486.2L770.1,490.5L769.4,492.6L763.2,493.9L763.6,493.3L762.9,491.3L761.9,490.3L761,491.4L761.6,493.1L760.9,494.5L760.7,496.9L761.3,497.8L759.7,499.8L759.2,501.1L760,505.9L759.6,509.6L757.6,509.6L755,509.1L752.8,508.4L750.3,505.8L748.6,506.3L747.7,505.7L744.5,505.3L740,503L737.1,503.4L732.7,504.3L729.5,505.5L726.2,507.6L725,509.2L723.4,510.1L721.1,510.7L716.9,510.5L707.5,508.8L705,509.3L701.5,508.9L696.2,507.9L692.3,507.6L688.6,508.2L687.7,506.4L689.5,504.4L685.2,501.9L684.4,500.7L682.8,499.8L682.3,498.1L684.8,496.3L681.8,494.7L680.1,495.2L678.4,497L677.1,497.2L676.1,496L674.6,495.3L671.1,494.6L669.6,493.4L667.5,492.8L667.7,492.2L669.5,491.4L667.2,490.3L668.7,488.3L667.8,487.2L665.2,486.4L661.4,484.5L659.2,482.7L658.8,478.6L658,478.8L656.2,476.8L653.3,475.1L651.6,473.1L654.8,472.2L656.2,472.7L658.7,470.7L661.3,471L662.6,470.1L664.1,465.4L666.2,463.9L666,462.6L667.6,459.9L667.6,458.7L669,457.2L669.7,454.7L671.1,453.3L671,451.6L672.2,450.6L674.1,448.2L678.7,447.1L680.9,444.8L683,443.9L683.9,442.7L684.6,442.7L687.3,444.2L690,444.1L696.9,445.5L700.5,444.8L701.7,445.1L706,448.4L708.1,447.9L709.1,446.7L712.5,445.4L720.9,444.2L722,442.3L722.2,440.9L725.9,440.1L728,440.1L730.5,441.7L733,444.7L736,449.6L737.5,450.9L740,454.1L742.1,455.9L743.4,457.6L746.4,459.7L747.8,462.6L749.2,464.9L749.7,467.8L748.8,472.6L748.9,475.2L750.3,480.2L749.4,480.9L751.4,483.2Z" style="fill:none;fill-rule:nonzero;stroke:rgb(245,245,245);stroke-width:2px;"/>
        <path id="RS" d="M651.6,473.1L653.3,475.1L656.2,476.8L658,478.8L658.8,478.6L659.2,482.7L661.4,484.5L665.2,486.4L667.8,487.2L668.7,488.3L667.2,490.3L669.5,491.4L667.7,492.2L667.5,492.8L669.6,493.4L671.1,494.6L674.6,495.3L676.1,496L677.1,497.2L678.4,497L680.1,495.2L681.8,494.7L684.8,496.3L682.3,498.1L682.8,499.8L684.4,500.7L685.2,501.9L684.3,502.6L684.1,504.5L682,505.5L681.6,507.8L682.2,510.2L684.6,514.1L687.5,515.6L688.8,517.2L690.4,518.2L690.1,519.6L688.5,521.3L687.4,522.9L685.6,523L684.5,523.6L684.5,526.9L685.9,529.8L684.8,531.5L683.8,531.8L682.4,531.1L680.1,531.9L678.2,531.6L676.2,532.5L674,532.8L673.4,531.5L674.4,530.6L675.6,527.4L675.8,526.2L671.1,525L671.1,523.7L668.9,522.5L668.7,521.8L666.4,519.7L663.6,518.4L662.5,517.1L660.8,518L661.4,519.6L661,520.6L659.3,521.9L659.3,523.3L657.8,523.8L657.7,522.8L652.4,519.9L650.3,519.4L647.3,517.8L645.4,515.8L642.8,514.1L642.4,512.9L643.1,512.1L645.6,512.4L645.8,510.2L642.6,506.5L643.1,505.7L646.2,505.8L646.5,505L643.2,502.1L640.8,500.9L640.3,500.1L640.4,497.5L642,494.8L642.5,492.3L641,491.5L638.2,492.2L639.2,490.6L638.5,488L640.2,487.6L642.5,487.5L641.6,486L638.6,485L637.4,484L637.8,482L636.5,481.6L636.3,480L634.7,477.3L635.4,475.8L637.5,474.5L639.1,475L641.3,474L642.8,472.4L643.8,472.1L646.7,472.5L647.8,472.3L650.6,472.6L651.6,473.1Z" style="fill:none;fill-rule:nonzero;stroke:rgb(245,245,245);stroke-width:2px;"/>
        <path id="SK" d="M674.8,427.7L673.3,430.7L672.5,433.6L670.9,435.3L671,437.8L666.7,438.9L666.1,438.7L663.9,436.5L662.5,435.6L657.9,436.3L655.4,435.7L652.7,435.6L650.9,436L649.3,439.5L644.3,442L640.8,440.6L640.1,440.8L639.1,442.3L636.7,442.9L632.4,443.3L631,444L630.6,445L631.1,446.3L630.5,447.3L623.5,447.7L618.8,447.6L617.2,446.9L613,444.2L610.9,443.9L608.6,441L607,438.1L606.9,437.3L607.8,434.9L608.9,432.1L610.3,430.9L613.9,431.4L615.6,431.2L617.1,430.5L619.2,428.6L620.8,427.8L621.5,424.8L623.8,423.6L624.4,422.8L626.4,421.3L629.2,421L630.5,421.2L631,422.7L633.2,422.7L634.2,421L636.4,419.7L639.4,422.7L640.8,423.1L641.4,425.8L642.8,425.4L644.5,426L645.6,423.9L647.9,422.9L650.9,422.8L653.3,423.8L655.1,423.9L656.5,422.4L659.7,422.2L663.3,422.5L666.4,423.5L667.4,424.2L668.2,425.6L673.9,427.5L674.8,427.7Z" style="fill:none;fill-rule:nonzero;stroke:rgb(245,245,245);stroke-width:2px;"/>
        <path id="MK" d="M683.8,531.8L687.1,535L690.5,536.8L692.2,540.1L693.1,541.1L692.6,542.8L692.6,547L690.6,547.3L690.4,549.4L687.5,550.4L684.2,549.8L681.2,550.2L680.4,550.5L678.7,553L676.3,554.3L674,553.7L673.1,554.3L668.5,554.6L667.2,553.5L665.6,553.7L664.3,551.3L663.1,550.2L661.9,548L661.7,546.1L661,544.1L661.8,543.3L661.5,541.2L662,538.6L663.7,538.9L664.2,538.1L664.4,535.5L667.8,534L668.8,533.9L670.4,535.1L671.9,533.2L674,532.8L676.2,532.5L678.2,531.6L680.1,531.9L682.4,531.1L683.8,531.8Z" style="fill:none;fill-rule:nonzero;stroke:rgb(245,245,245);stroke-width:2px;"/>
        <path id="SI" d="M605.2,467.1L602.7,466.5L601.8,467.3L601.8,469L599.8,469L599.1,470L594.7,471.7L594.3,473.1L595.2,474L595.4,476.2L595,477.3L592.9,477.9L590.8,478.9L591.8,480L591.1,480.7L591.9,483L590.7,483.4L589.1,483.2L587.1,482.5L585.8,483L584.3,482.3L581.7,480.2L580.5,482.4L579.9,482.7L576.3,482.8L575.2,482.3L573.8,483.6L570.5,482.8L570,482.2L571.7,481.1L573.2,481L573,479.7L571.5,478.4L569.6,477.3L570,475.3L568.7,475.1L568.4,474.1L570,472L567.7,471.3L567,469.9L570.3,467.6L570.5,466.7L575.5,467.6L580.5,468.3L583.5,467.1L584.5,465.8L586.4,465.1L589,464.9L591.8,465.1L594.1,464L595.7,463.8L598.1,464.3L598.2,462.4L599.5,461.5L601.9,461.6L603.3,464.9L605.2,467.1Z" style="fill:none;fill-rule:nonzero;stroke:rgb(245,245,245);stroke-width:2px;"/>
        <path id="SE" d="M591.1,319.4L589.6,319.1L589.3,315.3L591.3,310.7L592.3,310.4L595,303.9L595.5,305.9L594,309.1L593.7,311.3L593.1,311.8L591.1,319.4ZM617.3,296.7L616,298.1L614.6,298.6L614.7,301.9L616.2,303.1L614.9,303.6L614.2,305.4L612.4,306L610.9,307.6L610.6,309.2L608.5,310.1L609.7,307.7L608.8,307L607.4,304.9L607.8,304L607.2,300.8L609.9,297.9L611.2,296.8L614.5,295.8L615.8,295.8L617.3,296.7ZM654.1,183.7L651.4,184L649.2,183.4L648.2,183.7L644.4,184L643.3,184.7L641.2,184L639.2,182.8L637.2,183.9L635.6,182.9L634.6,184.8L634.7,186.6L632.9,186.4L633.2,187.5L631.2,189L628,189.2L628.7,190.7L627.8,191.4L628.8,193.1L627.5,194.6L625.4,196.5L624.9,197.5L626.6,198.6L628.2,201.1L629.8,202.2L629.4,203.4L627.3,204.5L625.1,206.2L623.1,210.5L620,211.8L617.6,213.4L614.6,214.1L612.2,216.3L610.4,215.5L608.9,216L607.9,217.8L606,219.3L603.6,219.1L603.8,219.9L601.5,220.2L600.5,224.2L598.3,224.8L597.6,225.6L596.7,225L594.6,225.1L596.2,227.9L594.5,229.7L593.3,229.7L591.8,230.4L589.9,229.6L589.7,230.8L590.5,232.1L591.8,233.1L591.7,234.4L590.8,238.7L591.5,240.5L589.4,241.7L588.6,242.8L589.2,244.5L589.1,245.6L589.8,247.5L590.6,251.7L591.7,253.7L591.6,255.3L592.9,256.2L595,256.1L596.4,257.7L599.5,256.9L600.3,258L603.2,260.2L604.9,260.5L606.8,261.7L606.8,263.2L609.7,264.2L611.6,266.2L612.4,267.8L612.3,268.8L609.7,270.3L608.4,271.6L604.6,273.7L604,273.6L601.9,274.6L603.9,275.2L605.3,274.5L607.9,273.9L609.3,275.1L607.1,275.6L606.8,277.2L606,278.2L604,278.9L601.2,280.4L597.2,281.8L596.1,283L593.5,284L592.2,284.8L588.4,284.8L584.7,284.7L585.7,285.6L586.6,285.4L590.2,285.8L591.9,287.1L588.9,288L590.6,291.2L589.9,292L590.3,295.5L589.2,295.6L588.9,297L589.5,299.5L590.5,301.6L590.4,302.6L588.9,305L589.8,307.9L588.3,313.2L586.4,316.3L585.1,320.4L583.3,321.8L580.9,320.9L577.5,321.4L574.3,321.1L571.3,321.3L570.5,321.7L571.2,323.1L568.9,322.9L567.2,324L565.2,326.1L565.2,327.6L567.1,330.6L565.4,332.6L564.3,332.6L561.1,332.1L555.6,333.3L550.5,332.3L551,331.3L551.2,328.2L550.6,326.5L549.3,325.4L546.2,321.6L545,319.3L547.4,320.2L548.4,319.7L546.6,317.1L548.8,317L549.5,316L548.9,314.5L547,313.9L545.1,311.5L543.3,310.3L539.8,305.6L538.5,302.4L537.4,302.7L536.2,299L534.5,298.4L533.9,294.7L532.1,294.3L530.8,292.6L530.4,289.4L529.2,288.8L528.4,287.4L527.6,284.4L527.3,281.7L526.4,279.9L526.9,278.7L528,278.5L529.1,279.3L530.1,281.1L532,280.9L532.7,279.5L533.3,275.6L531.7,271.2L533.2,269.7L534.1,267.3L536.7,266.6L538,265.8L539.9,263.8L540,261L540.6,258.9L540.1,257.5L537,252.6L536.7,251L538.5,250.4L540.9,250.4L542.2,247.9L542.6,246L539.2,243.3L538,242.9L534.2,240.8L535.1,234.4L535.1,232.8L532.6,228.4L532.7,226.6L532.1,223.8L533.2,222.7L530.5,218.6L532.5,215.8L532,214.3L533.2,213.3L536.7,209.5L540,208L543.3,207.6L550.4,208.5L552.1,206.3L552,205.1L550.9,202.2L546.2,200.6L550.6,195.6L553.9,190.6L554,185.9L554.6,183.2L553.2,179.3L557,178.9L559.4,178.4L562.7,176.9L561.7,174.4L563,173.5L566,170.6L569.3,167.7L570.8,166.7L571,165.3L570,164L567.3,161.7L567.8,160.6L570.5,160L571.6,158.9L573.1,155.4L576.8,153.5L578.3,152.6L584.6,154.4L586.7,151.3L585.9,147.7L585.9,146.9L588,146.4L592.1,147.3L595,147.4L603.6,149.1L604.6,149.2L607.1,147.6L604.2,146.7L605.8,145.8L607.2,143.9L607.1,141.9L604.5,140.3L609.6,140.1L612.5,140.9L612.9,141.8L615.8,142.9L620.6,145.2L624.8,147L633.1,148.7L636.6,150.5L637.8,152.1L639.2,152.2L641.1,153.7L642.9,154.6L641.8,155.6L642.2,158L642.9,159.4L642.6,161.3L645.4,161.7L646,163L645,163.8L644.9,164.9L645.7,166.5L649,169.1L649.6,170L648.9,171.4L649,173.2L647.5,174.5L647.5,175.8L648.8,178.4L650.6,179L652.5,181.2L654.1,183.7Z" style="fill:none;fill-rule:nonzero;stroke:rgb(245,245,245);stroke-width:2px;"/>
        <path id="TR" d="M733.4,565.7L730.5,566.2L730.4,564.7L732.6,564.1L733.4,565.7ZM927.9,544.2L932.2,545.5L933.3,544.5L936.9,544.6L940.3,545.4L941.2,543.5L942.6,543.1L944,543.4L944.6,544.5L945.8,544.9L949.3,547.4L950.4,549.1L952.3,549.3L953.6,550.5L954.9,552.1L956.6,553.3L958.3,556.6L958.1,558.9L957.1,560.3L957.9,562.2L959.8,565.2L959.3,565.8L961.1,566.7L964,567.6L967.5,567.2L969.1,567.9L971.4,569.6L974.6,572.4L975.4,573.3L972.1,571.4L970.7,573L970.6,576.8L970,577.2L967.2,577.1L966,577.5L967.2,580L968.6,581.2L968.6,583.5L970.7,586L970.9,588.1L971.8,590.3L972.1,592.5L972.6,593.2L974,593.5L973.4,597.3L972.8,598.5L972.4,600.5L974.1,601.1L977.3,603.1L977.4,604.4L978,605.9L978.3,607.9L981.5,610.2L981.5,612.5L979.4,612L975.7,615.1L974.5,613.9L974.2,611.5L972.7,610L971.4,609.8L969.3,611.2L965.1,610.9L962.2,609.8L959.3,609L957.4,609.6L955.2,608.9L953.7,610.8L951.7,612.7L950.5,613L948.9,610.4L947.6,610.2L946.4,611.5L944.2,612.3L939.6,613.3L936.4,613.6L932.3,613L929.1,613.2L926,614.6L920.8,617.4L916.7,618.8L912.5,619.7L904.9,619.5L903.8,619.2L900.3,616.9L896.9,616.3L893.5,617.9L891.2,618.7L887.7,620.3L882.9,620.2L881,618.5L877.3,617.8L876.7,619.4L876.4,623.2L878.2,626.3L874.9,627.7L874.9,630.3L873.1,631.4L872.3,633L870.1,631.8L869.1,631.7L869.8,630.4L867.3,625.5L868,624L871.5,620.1L871.1,617.7L869.1,616.1L866.2,618.2L864.5,619L864.2,620.2L863.1,621L861.3,621.4L858.4,620.4L855.2,619L853.3,617.9L851.9,617.6L850.6,618.1L847.1,620.9L844,625L843.2,625.8L840,627.5L837.8,628.1L836.8,628L832.4,628.8L830.2,628.9L828.6,629.8L825.1,628.8L822.9,627.5L821.5,626.2L819.2,623.3L817.6,622L814.3,620.8L808.5,617.8L803.2,617.1L799.2,616.8L798.5,617.9L798.6,622.1L798.1,623.3L798,625.5L796.9,626.6L794.8,625.6L792.9,626.5L789.2,627.8L788,627.9L783.4,626.3L780.5,624.2L779.9,622.2L778.6,619.5L776.8,619.8L774.5,619.4L771.3,617.8L768.9,617.7L767.7,619.6L766.7,620.3L765.4,619.9L766.2,618.6L762.5,618.8L760.7,619.8L759.2,619.7L758.2,618.7L760.2,618.1L764.1,617.7L765,617.3L765.9,616L767.6,614.8L766.4,614.3L760.4,614.6L756.2,614.4L755.2,615.1L754.8,613.5L758.4,612.1L758.1,610.8L753.9,608.6L753.6,607L751.6,603.9L753.5,603.4L753.6,600.9L753.2,599.4L749.3,598.1L748.5,598.2L747.4,596.9L745.7,596L744.5,596.7L741.2,595.3L740.6,594.7L741.1,593.3L742.1,592.2L741.2,590.3L741.1,589.3L742.9,589.2L743.9,590.3L744.2,592.5L747.8,593.2L750.7,592.6L748.2,591.5L747.1,590.3L745.9,588L747.7,586.9L748.9,585.2L746.2,584L746.4,581.6L743.9,578.9L744.2,578.1L746.5,575.3L745.3,574.6L741,575.3L739.4,575.9L736.3,576.1L736,574.5L736.6,573.2L736.1,569.8L736.3,568L738,567.4L739.7,564.7L742.7,561.6L746.2,561.6L747.5,560.7L749.6,560.7L750.4,561.9L752.3,562.8L755.5,562.7L756.9,561.8L755.3,560.3L757,559.8L758.5,560.2L758.4,562L762.5,561.5L766.9,561.9L768.3,561.7L771.7,561.7L772.2,561.2L768.6,559.5L770.6,558L777.4,556.8L781.1,556L775.4,555.2L774,554.6L772,553.2L771,552.1L771.3,549.5L771.9,548.8L774.1,548.7L781.8,549.9L787.1,549.1L793.2,550.9L798.8,550.5L799.9,549.8L801,547.2L808.4,543L810.8,540.9L813.6,539.7L818.6,538.3L822.6,536.6L823.8,536.4L834.2,537.2L841.2,537.3L844.2,535.7L846.2,536.2L846.1,538.3L848.7,540.9L852.2,542.3L856.6,541.1L858.4,541.6L860.6,545.6L862.1,547L863.9,547.9L865.2,548.1L866.7,546.7L868.4,546.6L871.3,547.9L872.5,549.3L877.3,550.4L881.6,551L883.6,552.2L889.8,553.4L892,553.2L895.6,551.9L902.6,550.6L907.8,552.5L910.3,552.6L912,553.1L913.7,552.8L918.7,550.5L920.1,549.3L921.8,548.9L927,545.6L927.9,544.2ZM756,537.1L755.9,538.9L756.9,540.9L759.2,543.6L761.2,545L769.3,548.3L770.7,548.6L769.8,552.1L767.7,552.6L761.3,551.1L759.7,551L756.8,552.4L754.5,552L751.4,552.6L750.8,554.7L748.8,557.1L745.5,559L743,560L739.5,563.7L738,565.9L736.5,566.6L737,564.6L736.7,562.9L739,560.9L742.3,559.3L743,558L737.6,558.3L734.3,558.3L733.3,556.5L734.1,556.1L736.6,552.9L736.1,548.5L739.5,546L738.6,542.9L736.3,541.4L735.1,541.1L735.4,539.7L737.3,539.4L738.3,537.2L741.7,536.8L743.2,535.7L746.7,535.4L750.1,537.9L751.6,537.3L753.4,537.3L754.3,536.9L756,537.1Z" style="fill:none;fill-rule:nonzero;stroke:rgb(245,245,245);stroke-width:2px;"/>
        <path id="UA" d="M796.7,471.6L796.7,472.2L792.8,471.4L791.9,470.5L796.7,471.6ZM770.3,486.2L768.4,484.4L766.2,483.7L764,483.9L761.8,485.2L760.2,485.7L759.3,485.4L758.7,486.6L754.7,485.7L752.9,484.8L751.4,483.2L752.5,482.5L754.5,482.3L754.9,481.3L754.4,479.9L756.9,477L756.9,475.7L759.2,474L759.6,472L758.6,470.3L758.1,468.2L760.6,466.6L762.7,467.6L764.6,467.8L766.7,468.6L768.3,468L769.5,469.3L772.4,468.9L773,468.2L770.1,466.5L769.9,463.6L768.9,462L766.8,461.2L764.8,459.9L763.9,458L763.9,455.6L761,453.6L758.7,452.4L758.1,451.2L758.7,448.1L758.1,445.8L756.7,444.4L755.3,445.1L753.9,444.1L752.5,442.2L746.9,441.6L746.3,440.4L743.8,440.1L740.2,437.7L736.7,436.7L735.1,437.7L734.3,437.4L733.1,438.4L729.1,438.3L728.4,438.1L726.1,439.5L725.9,440.1L722.2,440.9L722,442.3L720.9,444.2L712.5,445.4L709.1,446.7L708.1,447.9L706,448.4L701.7,445.1L700.5,444.8L696.9,445.5L690,444.1L687.3,444.2L684.6,442.7L683.9,442.7L683,443.9L680.9,444.8L680.2,443.1L679.3,442.4L677,442L676.1,440.9L673.9,440.1L672.5,437.8L671,437.8L670.9,435.3L672.5,433.6L673.3,430.7L674.8,427.7L678.1,428.4L678.5,427.5L676.6,426.1L676.7,424.3L675.2,420.5L675.8,419.5L679.2,415.1L681.6,412.4L686.4,407.8L689.4,407.3L690.6,405.5L690.5,404.2L688.7,401.6L689.9,400.3L688.5,399.3L686.6,396.5L683.9,393.7L683.9,392.4L682.7,390.6L682.6,389.2L683.7,388.7L685.6,389L686.7,389.5L688.6,388.3L690.2,386.7L691,385.3L696.9,384.8L699.2,384.3L701.6,384.2L709.4,384.6L715.9,386.1L722,387L724.3,387L726.1,389.1L727.1,389.4L730.1,389.3L731.2,389.7L732,391.1L733.2,389.4L735.1,389.9L737,389.2L742.1,390.2L742.9,391.5L743.9,391.8L744.5,390.7L748.3,389.1L750.8,392.1L751.4,392.6L753.7,391.8L760.8,391.2L762.8,392.3L763.3,393.5L766,394.4L766.8,393L765,389.4L766,386.1L766.8,384.9L769,382.6L770.1,382.1L771.8,382.5L773.2,381.7L778.2,381.8L780.8,382.6L782.5,382.5L784.3,381.6L784.8,379.2L786.4,378.6L790.1,379.5L791.1,379.4L793.8,378.2L795.4,378L797.4,378.3L800.8,378.1L803.3,379.5L804.7,380.9L806.4,383.6L810.4,386.6L810.3,387.6L807.4,388.1L808.7,390L809.2,392L810.4,393.7L810,394.7L813.1,394.8L816,395.8L820.1,395.3L821.6,397.5L823.5,397.7L823.7,398.6L825.1,401.4L826,402.5L825.8,404.3L826.3,405.3L828.2,406.9L828.9,407.9L830,408.3L832.3,406.9L835.1,407.3L837.8,409.3L840.1,409.3L841.8,410.4L843.2,409.1L847.5,408.2L849.8,407.2L850.8,407.3L853.1,409.1L853.6,410.3L855.1,411.9L859.8,414.8L861.1,414.2L862,412.7L864.6,414.1L867,414.3L870.6,416.2L872,416.3L873.6,415.7L875.6,417.5L877.5,417.7L881.9,420L884.8,419.7L885.8,420.5L885.7,422.2L886.7,423.1L886.6,425.7L884.9,427.8L882.6,428.6L883.7,430.1L886.8,431L885.9,431.9L884.5,431.7L883.7,432.7L883.4,435L885.9,435.7L887.1,438.5L887.1,439.6L888.3,439.9L887,444.6L886.9,446.4L882.7,446.6L876.7,446.3L875.8,446.5L874.9,448.4L872.6,449.8L870.9,450L870.1,450.8L870.1,453.1L869.7,454.4L870.8,455.1L870.1,456.7L870.6,458L870.1,458.1L865.8,457.9L862.4,458.2L860.3,460.6L858.8,460.6L855.6,462.1L854.2,463.8L852.8,463L849.7,463.5L848,464.6L844.9,464.5L842.6,465.1L838,468.9L836.7,469L835.7,468L834.1,470.6L831.7,471.8L832.3,474.9L835.1,479.4L838.7,483.3L840.4,484.7L842.8,485.4L845.9,484L848.3,484.4L850,483.2L851.5,483.1L855.2,484.1L854.1,486.6L853.8,489.2L851.9,489.8L849.7,489.7L847.5,490.1L844.8,488.6L842.3,488.6L841.2,490.5L838.9,491.8L838.3,493.2L835.7,492.9L833.6,493.1L830.8,494.5L828.9,497.3L826.6,499.1L824.7,499.6L822.7,499.5L821.4,498.9L818.5,497.1L819.2,495.1L819.7,491.6L818.5,488.7L816.2,487.3L814.6,487.5L813.7,487.2L810,484.8L808.1,484.6L806.2,485.1L804.7,483.9L808.2,481L811.7,478.6L813.4,478.4L815.5,477.2L817.7,475.6L816.4,473.3L814.5,473.9L812.3,472.8L811.4,472L808.3,472.8L806.5,472.7L802.7,473.5L800.8,472.7L796.8,470.7L794.2,470.4L794.2,469.4L796,469.1L796.1,468.1L792.3,467.5L792.2,466.2L794.2,466.7L797.4,466.9L800.3,467.4L802.4,465.6L800,466.1L797.1,465.6L795,463.8L792.8,465L789.6,464.5L787.2,465.3L784.9,465.1L780.8,466.2L780.4,469.1L778.4,473.1L775.3,476.8L770.7,478.9L769,478.5L768.1,479.6L768.3,480.9L769.3,481.8L770.4,484.9L770.3,486.2Z" style="fill:none;fill-rule:nonzero;stroke:rgb(245,245,245);stroke-width:2px;"/>
        <path id="XK" d="M674,532.8L671.9,533.2L670.4,535.1L668.8,533.9L667.8,534L664.4,535.5L664.2,538.1L663.7,538.9L662,538.6L661.9,536.4L660.5,533.2L658.6,531.9L657.2,531.4L655.2,528.5L654.7,528.1L654.9,526.8L654,525.3L656,524.9L656.2,524.2L657.8,523.8L659.3,523.3L659.3,521.9L661,520.6L661.4,519.6L660.8,518L662.5,517.1L663.6,518.4L666.4,519.7L668.7,521.8L668.9,522.5L671.1,523.7L671.1,525L675.8,526.2L675.6,527.4L674.4,530.6L673.4,531.5L674,532.8Z" style="fill:none;fill-rule:nonzero;stroke:rgb(245,245,245);stroke-width:2px;"/>
        <path id="NL" d="M452.2,392.5L451.6,393.7L448.4,395.2L444.5,394.1L443.3,394.7L442.1,394L441.8,392.7L444.6,392.3L448.1,393L449.6,392.4L450.8,392.9L452.2,392.5ZM448.8,387.2L450.3,388.6L448.8,388.9L447.2,387.9L448.8,387.2ZM466.9,378.7L463.9,378.3L463,377.6L465.4,375.9L468.6,374.4L470.3,374.8L470.8,375.7L469.7,376.8L466.9,378.7ZM459.3,367.2L458.2,368.3L457.6,366.9L459.3,365.5L459.3,367.2ZM452.2,392.5L449.6,391.7L447.4,392.2L444.6,391.5L442.9,390.2L444.1,389.5L446.4,389.4L450.4,390.1L451.6,389.2L451,388.2L448.7,386.1L450.3,383.4L451.7,382.4L454.9,378.6L455.8,376.6L457,371.1L458,369.1L459.4,369.6L461.4,368.8L464.8,366.8L465.8,365.1L466.8,364.2L470.8,362.6L472.9,362.2L481.8,361.7L483.6,363.4L486.3,364L486.4,368.3L485.7,370L484.6,373.8L481.5,373.7L480.9,375.3L481.6,376.3L484.2,376.6L485,377.6L484.4,380.2L481.8,381.8L481.5,382.7L482.5,383.6L481.8,384.6L477.3,385.9L475,385.1L473.2,385.8L472.5,386.9L475.6,391L475.6,392.2L474.3,395L475,396.2L472.8,397.8L472.3,398.6L474.2,399.8L473.6,402.2L472.4,402.1L470,401.8L469.3,400.7L470.4,399.4L471.4,396.5L468.8,395.4L467.1,394.1L465.2,394.5L462.6,393.1L462.1,391.5L459.6,392.3L458.5,391L457,392L455.5,391.2L454.1,391.9L454.3,392.8L452.2,392.5ZM470.3,376.9L471.2,376L470.7,374.1L468.6,373.8L468.1,373L468.5,370.5L465.7,370.1L465.3,367.6L463.8,367.9L461.5,369.4L462.1,370.7L463.7,372.3L463.7,373.2L461.6,373.9L461.7,376.5L461.5,378.1L466.9,379.5L470.3,376.9Z" style="fill:none;fill-rule:nonzero;stroke:rgb(245,245,245);stroke-width:2px;"/>
        <path id="ES" d="M420.4,584.7L420,585.7L418,585.3L418,583.8L419.2,582.2L421.9,581.5L422.7,582.8L420.4,584.7ZM442.1,571.1L443.3,571.6L444.6,571.1L446,571.5L446.2,572.5L444,576L443.4,577.4L441.3,578.7L437.3,577L437,575.4L435.6,574.7L433.9,576L432.5,575L432.2,573.8L437.5,570.1L439,569.2L442.2,568.3L442.7,569.5L442.1,571.1ZM456.8,570.3L456.5,570.5L452.6,568.6L451,568.2L451.1,566.8L453.7,566.6L455.8,567.3L457,569.1L456.8,570.3ZM379.4,514.8L379.9,516.1L384.2,517.4L383.9,520.6L385.7,520.2L390.1,521.9L392.3,522.1L394.5,524.2L398.1,523.8L401.3,525.9L404.4,525.5L405.1,525.9L409.8,525.9L410.6,523.5L414.6,524.6L417.1,525.6L418.8,525.9L419.9,527.4L419.9,529.5L420.6,529.9L423.4,528.8L426.2,530L427.5,531.2L429.6,530.1L434.3,531.3L435.5,530.5L439.3,529.4L442.4,530L443.6,532.2L441.8,532.7L441.6,534.1L442.8,535.4L442.9,537.5L439.9,540.3L431.2,545L428.3,547.7L421.7,549.2L417.2,550.7L415,551.2L410.9,555L412,555.3L413.2,556.5L412.8,557.1L410.3,558.2L409.4,558.2L406.5,562.8L403.9,566.1L402.4,567.6L400.9,569.7L397.7,575.3L397.6,576.9L399.2,582.4L401.4,585.1L403.8,586.2L404.4,587.2L403.6,588.2L401.2,589.9L396.9,592.2L395.1,594.1L394.8,595.9L393.5,596.7L393,599.2L391.2,603.6L392.5,604.8L391.2,605.6L384.7,605.9L380.6,608.7L378.6,611.1L376.7,615.6L374.5,618.2L373.5,618.7L372,617.5L370.1,617.4L368.2,617.7L367.2,618.7L365.7,619.2L364.2,618.7L359.6,618.5L357.3,619.3L355.4,618.8L352.2,618.5L345.2,619.1L341.2,622.5L337.8,622.5L334.7,623.7L332.6,626.7L332.1,628.3L331.1,628L330.8,629.2L328.7,630L326.3,629L324.3,627.5L323.3,627.4L321.7,625.2L320.5,622.1L320.5,621L319,620.4L318.7,619L318.9,617.4L317.7,615.4L312.7,611.7L309,611.4L306,611.9L304.9,605.5L305.7,603.3L309.2,599L311.3,598.4L312,596L310.3,596.2L307.3,591.9L308.2,587.9L311.4,584.9L312,582.5L311.5,581.7L309.8,581.3L308.2,578.1L307.9,576.2L306.5,575L305.4,573.1L306.5,572.8L310.8,572.8L311.8,572.3L313.5,568.8L313.5,566.9L312.1,565.6L312.3,564.6L315,562.5L314.6,561.4L315,557.6L314.6,554.1L313.8,552.1L315.8,550.5L316.9,548.9L318.5,547.5L320.6,546.4L323.1,543.9L322.8,542.8L320.9,541.9L319,541.7L318.9,538.6L318.2,537.5L313,537.4L311.5,536.9L310.7,538.3L308.2,539.2L306.8,539.2L304.6,538.4L301.7,538.5L298.7,539.6L297.8,538.3L299.1,536.4L298.1,534.6L294,535.6L292.1,536.5L290.9,537.6L289.6,537.5L289.6,535L292.2,532.4L290.6,532.2L291.8,530.3L290.8,529.3L290.9,526.7L288.6,527.6L288.1,526.4L289.5,524.2L288.1,524L285.8,521.5L286.6,518.4L288.6,517.4L290.5,515.9L293.1,516.2L294.8,515.9L298.4,514.3L298,512.8L298.4,512.1L301.6,510.4L303.6,510.2L305.5,509.3L306.8,509.8L307.9,509.7L309.2,510.3L310.9,511.9L313.4,512.5L315.4,512L319,511.9L320.7,512.1L323.9,511.8L325.7,511.9L328.6,511.1L330.9,512.1L335.3,512.5L337.9,513.3L345.1,514.7L347.8,514.7L351.5,513.9L353.1,513.4L354.6,513.7L356.7,513.1L359,514.1L363.7,515.4L365.8,514.1L369.2,514.7L372.5,516L374.3,516.1L376.9,515.8L379.4,514.8Z" style="fill:none;fill-rule:nonzero;stroke:rgb(245,245,245);stroke-width:2px;"/>
        <path id="FR" d="M521.2,524.1L520.9,526.4L521.9,528.1L522.5,534.6L520.7,537.8L520.8,540.8L519.2,545.1L518.4,546.2L514.6,544.2L513.4,543.1L514.4,541.3L512.2,540.4L512.6,538.7L512.4,537.8L510.8,537.3L511.8,536L511.8,535.2L510.3,534.2L510,533.3L511.3,532.2L510.7,531.3L510.8,530L511.7,528.1L512.9,527.2L515.7,526.4L516.9,525.3L518.8,525.9L519.4,524.7L519.2,522L519.5,520.9L520.8,521.4L521.2,524.1ZM387.3,476.2L386.9,477.6L385,475.2L386,474.7L387.3,476.2ZM471.7,420.6L473.8,421.8L475.2,421.8L477.2,421.2L478.5,421.9L479.9,422L483.4,426.3L485.2,425.6L486.6,426L486.9,426.9L489,427L492,426.4L494,427.8L498.8,428.6L500.4,429.2L500.5,430.5L497,434.3L495.6,439.8L494.6,441.6L494.3,443.1L494.5,445.5L493.9,447.5L493.9,449L495,450.3L493.5,451L492.7,452.4L490,452.7L489.2,451.9L488.1,451.9L486.3,453.3L487.6,454.4L487,455.3L483.2,459.3L481.1,460.2L480.6,463.1L477.6,465.3L476.5,468.2L477.3,468.9L477,470.4L475.5,471.4L475.5,472.4L476.9,472.5L479.2,470.9L478.7,469.6L481,468.1L482.9,468L485.1,468.3L485.9,470.5L485.4,472.2L487.7,474.5L488.6,475.9L486,477.6L486.1,479.2L487,479.8L488.7,482.4L490.5,484L489.7,486.5L488.5,486.8L486.8,488.1L484.9,487.9L484.1,488.3L485.6,491.4L488.8,492.8L489.3,494.5L488.5,495.2L487.1,497.7L487.8,499L487.9,500.4L488.8,501.3L493.9,503.7L497.2,503.1L497.5,505.1L495.4,507.7L495.6,509.2L495,509.5L494.2,509.8L491.8,510.9L487.9,514.3L486.1,515.3L485.4,517.1L483.4,518.5L481,519L478.7,520L477.6,519.6L474.8,519.6L473.1,518.4L469.7,517.6L468.6,515.8L466.1,515.7L465.3,514.2L463.4,514.5L461.9,515.2L459.9,515.1L454,513.3L452.6,511.9L450.9,512.4L449.3,514L442.8,518.1L440.2,522.4L440.1,523.6L440.8,527.5L442.4,530L439.3,529.4L435.5,530.5L434.3,531.3L429.6,530.1L427.5,531.2L426.2,530L423.4,528.8L423.4,527.3L420.8,526.7L419.9,527.4L418.8,525.9L417.1,525.6L414.6,524.6L410.6,523.5L409.8,525.9L405.1,525.9L404.4,525.5L401.3,525.9L398.1,523.8L394.5,524.2L392.3,522.1L390.1,521.9L385.7,520.2L383.9,520.6L384.2,517.4L379.9,516.1L379.4,514.8L381.4,514.3L383.3,512.4L385,505.3L386.3,497L387.3,495.4L388.5,495L387.5,493.8L386.4,495.3L387.1,487.7L387.6,484.9L388.5,481.9L391.6,484.3L392.4,485.3L393.3,488.7L393.9,488.8L392.8,484.2L391,481.9L387.4,479.6L386.9,478.3L388.7,477.7L388.2,475.9L387.7,470L384.7,469.4L379.9,466.8L378.2,464.2L376.6,462.3L376.2,460.6L377.1,458.8L376.3,457.7L374.9,456.9L376,455.3L373,455.1L371.2,454.6L370.9,453.5L372.2,452.1L370.6,451.3L368,451.5L367.8,449.8L365.6,450.1L364.4,449.8L363.3,448.7L362,448.9L359.8,448.5L359,447.8L354.2,446.5L352.2,446.4L350.3,447L349.2,446.7L347.9,444.5L344.8,443.4L345.4,442.7L348.5,442.1L349.1,441.4L346.9,440.5L346.7,439.3L348.3,439.6L348.4,438.4L344.4,438.5L344,437.2L344.5,435.8L346.8,434.6L352.6,433.2L355.1,433.4L356.8,433.2L359.8,431.6L362.7,431.2L365.4,432L367.9,434.8L369.1,435.8L372.2,434.1L376.6,434.2L377.5,435.1L378.7,433.4L379.7,434.4L384.4,434.2L382.9,431.7L382.7,425.7L381.4,424L379.3,419.7L379.5,418.3L382.7,418.6L385.4,418L386.7,418.4L387,421.2L388.1,422.8L390.3,422.8L392.6,423.3L395.6,423.4L399.9,424.2L401.7,423.7L405.2,421.7L403.4,421L403.2,420.3L404.1,418.1L409.3,415.6L413,414.9L416.8,413.6L418.8,412.2L420,410.4L420.5,409.1L420.8,402.3L421.8,400.1L424.7,398.5L431.1,397.4L432,396.9L432.9,399.1L432.9,400.3L435.8,402.7L439,401.7L440.6,403.5L441.1,405.5L445.3,406.6L445.9,408.6L446.8,408.3L450.4,408.7L452,409.8L451.6,411.4L452.3,412.1L451.6,413.5L452.1,414.1L454.4,414.4L456.6,414.1L457.9,413.5L458.4,412.1L460.3,411.5L459.5,414.2L460.1,414.8L460.5,416.8L462.2,416.9L465.5,418.4L468.3,421L471.7,420.6Z" style="fill:none;fill-rule:nonzero;stroke:rgb(245,245,245);stroke-width:2px;"/>
        <path id="PT1" serif:id="PT" d="M306,611.9L304.8,612.1L300.3,614.6L299,614.6L296.5,613.5L292,613.1L290.5,612.8L288.7,613.5L287.2,613.5L286.1,614.5L285.3,614.2L286.3,612.1L287.9,608L287.9,605.4L288.3,603.2L288,601.1L287.3,599.7L288.4,596.2L288.4,594.4L287.5,592.1L290.3,592.4L288.6,591L287.1,591L284.8,591.9L283.3,592L283.4,590.6L282.9,588.8L284.9,588.2L286.5,586.5L286.2,584.9L285,586L284.4,587.4L281.6,588.1L280.1,587.6L280.1,585.7L280.7,584L281.1,581.7L281.9,579.5L281.7,578.1L283.3,576.8L284.7,574.9L289,566L288.4,565L290.1,558.4L291.3,556.1L291.9,551.8L291.7,549.8L291,547.8L290.3,543.5L290.3,542.1L289.4,540.3L289.5,539.3L290.9,537.6L292.1,536.5L294,535.6L298.1,534.6L299.1,536.4L297.8,538.3L298.7,539.6L301.7,538.5L304.6,538.4L306.8,539.2L308.2,539.2L310.7,538.3L311.5,536.9L313,537.4L318.2,537.5L318.9,538.6L319,541.7L320.9,541.9L322.8,542.8L323.1,543.9L320.6,546.4L318.5,547.5L316.9,548.9L315.8,550.5L313.8,552.1L314.6,554.1L315,557.6L314.6,561.4L315,562.5L312.3,564.6L312.1,565.6L313.5,566.9L313.5,568.8L311.8,572.3L310.8,572.8L306.5,572.8L305.4,573.1L306.5,575L307.9,576.2L308.2,578.1L309.8,581.3L311.5,581.7L312,582.5L311.4,584.9L308.2,587.9L307.3,591.9L310.3,596.2L312,596L311.3,598.4L309.2,599L305.7,603.3L304.9,605.5L306,611.9Z" style="fill:none;fill-rule:nonzero;stroke:rgb(245,245,245);stroke-width:2px;"/>
        <path id="CY" d="M843.2,646.3L843,646.3L843.1,646.2L843.2,646.3ZM843.2,646.3L843.4,646.3L843.5,646.4L843.2,646.4L843.2,646.3ZM842.9,646L842.7,646L842.7,645.9L842.8,645.9L842.8,645.8L842.9,645.9L842.9,646ZM846.3,645.2L846.5,645.3L846.8,645.6L847,646L847.1,646.3L847.3,646.5L847.5,646.6L847,646.6L846.7,646.5L846.5,646.3L846.3,646.3L845.6,646.4L845,646.5L844.8,646.7L844.2,646.7L844.1,646.6L844.3,646.5L844.4,646.5L844.3,646.2L844.1,646.2L843.9,646.1L843.9,645.7L843.8,645.6L843.5,645.5L843.5,645.3L843.6,645.2L843.8,645.1L844,645.3L844.2,645.2L844.5,644.9L844.7,645.1L844.9,645.2L845,645.2L845.2,645.3L845.3,645.3L845.6,645.2L845.8,645.2L845.9,645.3L846.3,645.3L846.3,645.2ZM842.3,646.3L842.3,646.5L842,646.6L841.7,646.9L841.7,647.1L841.6,647.4L841.6,648.4L841.5,648.4L841.4,648.5L841.4,648.8L841.3,648.9L840.7,648.9L840.5,649L840.4,649.1L840.3,649.3L840.2,649.4L840,649.5L839.6,649.6L839.2,649.8L838.9,649.9L838.7,649.6L838.8,650.1L838.4,650.3L837.5,650.5L837.3,650.6L837.2,650.7L837,650.8L836.8,650.8L835.9,650.7L834.9,650.8L834.8,650.9L834.6,651L834,651.5L833.9,651.8L833.6,651.8L833.3,651.9L833.3,652L833.2,651.9L833.1,651.7L833.2,651.5L833.3,651.6L833.6,651.6L833.5,651.2L833.1,651.1L832.8,651.4L832.6,651.3L832.6,651.4L832.2,651.3L831.9,651.1L831.8,651L831.8,650.8L831.4,650.8L831.3,650.9L831.3,651L831.1,651L831,651.2L830.6,651.2L830.5,651.3L830.6,651.5L830.4,651.6L829.9,651.6L829.3,651.5L828.8,651.3L828.1,650.9L827.5,650.7L827,650.7L826.7,650.6L826.5,650.4L825.9,650L825.8,649.9L825.7,649.5L825.7,649.4L825.6,649.3L825.2,648.4L825.1,648.3L824.8,648.1L824.6,648L824.5,647.9L824.4,647.7L824.4,647.5L824.5,647.3L824.2,646.9L824.1,646.7L824.1,646.3L824,646.1L823.7,645.6L823.5,645.3L823.4,644.9L823.5,644.6L823.6,644.6L823.9,644.7L824.3,645.2L824.6,645.3L824.8,645.4L825.4,645.4L825.8,645.2L826.4,644.4L826.5,643.9L826.6,643.6L826.8,643.5L826.9,643.4L826.9,643.3L827,643.3L827.1,643.4L827.4,643.4L827.7,643.7L828,643.7L828.2,643.5L828.3,643.3L828.3,643.1L828.7,643.2L829.1,644L829.3,644.1L829.7,644.2L830,644.3L830.2,644.5L830.4,644.6L830.5,644.8L830.5,645L830.7,645.2L830.8,645.2L831.2,645.1L831.4,644.7L831.5,644.6L831.7,644.8L831.9,644.9L832.1,644.9L832.3,644.8L832.7,644.4L832.9,644.3L833.2,644.1L833.3,643.9L833.5,643.9L833.8,644L834.5,644L834.6,643.9L834.7,643.9L834.8,643.7L835.1,643.5L835.3,643.5L835.5,643.6L835.6,643.7L835.9,643.7L836.3,644.1L836.5,644.2L836.8,644.3L836.9,644.3L837,644.2L837,644.1L837.1,643.9L837.4,643.6L838.3,643.6L838.3,643.8L838.4,644L838.9,644.5L838.9,644.6L839,644.9L839,645.8L838.9,646.1L839,646.3L839.1,646.4L839.5,646.4L839.5,645.7L839.8,645.4L839.9,645.5L840,645.9L840.1,646.1L840.2,646.2L840.5,646.1L840.5,645.9L840.6,645.8L840.8,645.8L840.9,645.9L841.1,645.9L841.2,645.8L841.3,645.9L841.4,645.9L841.7,646.1L842,646.1L842.3,646.3Z" style="fill:none;fill-rule:nonzero;stroke:rgb(245,245,245);stroke-width:2px;"/>
    </g>
    <path id="GB" d="M389.1,403.1L387.5,404.4L386.2,404.6L383.7,403.4L383.7,402.9L386.2,401.8L388.2,402.4L389.1,403.1ZM352.6,363.4L353.9,364.3L350.5,366.2L349.3,365.6L348.4,364.4L348.3,362.5L349.5,362L351.3,362L352.6,363.4ZM329.3,352L327.2,352.4L324.3,352.4L324.4,350.9L323,350.4L321.2,347.7L319.9,347.2L318,348.8L318.5,349.7L316.1,351.5L313.2,351.2L312.4,350.5L310.3,350.1L310.1,349.1L307.4,347.1L308.4,345.7L311.3,344.8L310.3,343.4L310.5,342.6L312.1,342.7L314.3,341.9L315.5,340.3L316.5,338L318.4,337.1L319.7,337.7L321.6,335.7L324.4,335.6L327.1,334.9L331,335.2L332.1,336.3L332.6,338L333.9,339.7L335.6,341.1L335.6,342L333.6,343.1L337.1,343.4L338.3,345.9L336.2,346.2L336.1,347.6L337.2,347.8L336.6,349.2L334,349.8L332.6,352L331.6,352.5L329.3,352ZM343,331.8L340.4,331.3L339.8,329.3L340.7,327.9L342.5,328.6L343.1,329.9L343,331.8ZM331.5,324.7L332.2,328.1L329.8,329.4L329,327L327.6,328L327.8,326.1L329.3,325.8L331.5,324.7ZM333.2,326.4L332.1,325.2L333.7,323L335.4,322L335.3,323.6L333.2,326.4ZM335.7,318.6L331.1,319.4L331.7,316.4L329.8,315.5L330.1,314.6L332.2,314.1L333.9,315.8L336,316.4L335.7,318.6ZM319.5,307.2L318,307L317.6,305.6L317.8,303.3L319.4,303.5L319.5,307.2ZM332.3,301.5L332.2,304.3L335.1,305.1L337.1,305L337.5,305.6L334.2,308.3L333.5,308.2L333.3,306L331.9,306.3L330,306L328.8,304.1L326.1,303.6L325.2,302.5L326.6,301.9L326.9,300.7L329.7,300.1L331.2,299.4L332.1,300.4L332.3,301.5ZM320.4,298.9L321.6,299.8L320.5,301.1L319,301.1L316.8,300.1L317,299.6L320.4,298.9ZM332.2,289L330.6,291.6L329.6,292.3L329.4,294L326.4,295.6L323.2,298L321.8,297L324.4,295.3L322.3,294.3L322.1,291.7L322.9,291L324.3,291.7L326.2,291.4L325.5,290.2L331.8,287L332.2,289ZM367,286.8L367,288L365.7,289.6L363.5,290.8L359.3,293.6L356.8,294.9L356.3,296.5L357.7,296.6L357.9,297.4L355.7,299L355.1,300.5L358.1,300.1L363.4,298.6L367,299.1L369.6,298.8L376.5,299L378.4,298.7L380.7,300L381.7,301.7L378.9,305.1L378.1,307.4L376.1,310.9L374.2,312.9L372.2,315.4L370.1,316.5L367,317L371.5,318.9L370.1,320.7L367.7,320.8L365.4,322.5L363.3,323.2L366.9,324.3L369.3,323.3L372,323.2L377.2,325.1L380.8,328.5L382.8,330L383.3,331.1L385.4,338L386.9,341.8L388.5,343.6L393,345.2L394.1,345.8L397.5,349.1L400.9,351.5L399.5,353L399.9,354.2L402,357.1L402.3,358.7L401,358.6L398.7,357.2L398.4,357.9L403.4,361.2L405,363.2L406,365.9L405.4,367L402.4,369.7L405.2,371.1L406.4,370.9L408.4,368.8L410.1,368.6L414.3,368.9L418.1,369.9L421.4,372L422.1,373.1L422.5,376.2L420.3,382L417.5,383.9L417,385.6L414.9,386.5L413.2,386.2L410.8,387.4L412.5,388L412.5,389.7L411.4,390.3L408.9,390.5L410,392.5L412.5,392.9L416.8,392.7L418.7,392.9L418.5,395.6L418.1,396L414.3,397.7L413.3,399.5L411.1,399.4L410,400.1L404.3,402L399.4,401.2L396.5,401.3L392.5,401.9L388.3,400.7L386.5,400.5L383.7,402.2L379.5,402.7L377.5,402.5L378.4,404L377.5,404.4L373.7,403.9L372.7,404.4L371.3,404.2L368.6,402.8L366,402.7L361.1,403.9L360.1,405.2L358.8,408.7L357.7,409.9L356.3,410.1L351.8,407.6L350.3,408.1L347.8,408.4L345.1,409.1L341.2,411.5L340.3,413L339,413.2L337.9,412.3L336.5,412L334.2,412.8L333.9,411.5L334.9,410.5L337.7,409.8L340.2,407.9L342.4,405.6L347,401.8L347.8,398.7L350.5,398L351.9,395.5L356,394.9L358.8,394.9L361.6,395.4L364.5,395.3L365.6,394.6L367.5,392.2L371.1,389.2L366.4,390.2L362.6,392.5L359.4,392.1L357.1,390.2L355,389.4L352.9,389.8L352.2,388.9L349.8,387.2L347.2,387.2L343.6,388.9L341,387.7L340.1,385.4L340.4,384L341.5,383.3L344,382.7L347.8,381L350,380.3L352.8,378.4L354,376.1L353.7,374.1L354.2,372.7L353.3,371L353.6,369.5L350.6,369.8L347.9,371L347.2,369.9L350,368.1L351,366.7L353.6,365L357.2,363.7L359.1,363.8L362.8,363.1L365.5,364.4L364.7,362.3L365.9,361.9L366,359.5L367.6,357.3L366.4,356.7L366.5,354.7L368,353.9L368.7,351.3L367,350.8L364.9,351.4L363.2,349.9L360.4,346.3L360.1,344.9L361.7,341.8L364,339.8L362.1,339L360.7,339.2L358,340.4L356,341.7L353.9,341.7L353.1,340.8L352,340.9L349.5,342L346,340.7L344.9,343L342.3,340.5L342,338.6L343.3,338.6L344.5,336.2L347.4,332.2L348,331L347.5,329.6L345.6,328.1L345.9,325.5L346.7,324.5L348.2,324.1L346.3,322.9L343.4,323.8L341.6,324.7L341.9,322.7L341.3,322.3L339.8,323.7L339.9,327L337.8,332.7L336.7,333.6L335.3,333.1L336.4,329.2L337.8,326.7L337.2,326.4L337.5,322.8L338.5,319.9L340.2,316.1L342.4,312.6L338.3,315.3L337.3,315.8L334.9,315.4L334.1,314.7L333.1,312.4L334.9,312.2L336.6,311.1L335.1,310.4L336.6,309.5L338.3,307.4L338.7,305.5L337.7,304L336.1,303.4L335.9,302.5L337.6,300.6L336.9,299.1L338.5,296L341.5,296.1L343.4,295.7L341.1,293.7L341.8,290.8L345.5,290.5L344.7,288.7L345,286.7L346.6,285.8L347.9,286L348.9,286.9L351.5,286L352.1,286.8L354.9,286.2L358.6,285.9L363.1,285.3L365.3,284.9L367.6,285.1L367,286.8ZM366.4,282.8L365.1,282.9L363.8,281.5L365.3,281.2L366.4,282.8ZM367.7,279.4L370.4,280L369.8,281.4L368.4,280.7L366.4,281L364.5,280L364.9,277.9L366.6,277.8L367.8,278.3L367.7,279.4ZM371.4,277.1L370.4,277.4L370,276.2L368.3,275.6L368.7,274.8L371.4,277.1ZM387.5,257.6L389.1,259.4L390.1,259.9L388.8,263.7L388.6,265.3L387.6,267L386.8,266.6L387.7,263.7L387.2,262.6L385.5,262.9L385.1,262L386.7,260.6L385.9,258.6L384.8,258.4L386.3,256.8L387.5,257.6ZM390.4,258L389,256.7L390.3,256.1L390.4,258Z" style="fill:rgb(200,16,46);fill-rule:nonzero;stroke:rgb(200,16,46);stroke-width:2px;"/>
</svg>
